<?xml version="1.0" encoding="UTF-8"?><svg id="Master_Logo_-_Light" xmlns="http://www.w3.org/2000/svg" viewBox="0 0 1200 600"><defs><style>.cls-1{fill:#0099e5;}.cls-2{fill:#8a8d8f;}.cls-3{fill:#1e2a36;}.cls-4{fill:none;stroke:#0099e5;stroke-linecap:round;stroke-linejoin:round;stroke-width:4.618px;}</style></defs><g id="Master_Logo"><path class="cls-3" d="M175.253,529.006h-18.204l-4.587,14.199h-8.884l16.456-50.752h12.233l16.528,50.752h-8.883l-4.66-14.199ZM159.598,521.069h13.106l-6.554-20.024-6.553,20.024Z"/><path class="cls-3" d="M196.515,492.453h8.883v50.752h-8.883v-50.752Z"/><path class="cls-3" d="M285.639,504.613l-5.68-4.806h-13.835l-5.825,5.097v25.34l5.68,5.606h14.563l5.097-4.878v-8.01h8.884v11.577l-9.394,8.665h-24.466l-9.247-8.665v-32.84l9.393-9.247h24.758l8.956,8.446v10.049h-8.884v-6.335Z"/><path class="cls-3" d="M345.711,501.773v31.82l-8.883,9.611h-24.612l-8.956-9.394v-31.819l8.884-9.539h24.466l9.102,9.32ZM318.041,499.808l-5.897,5.606v24.902l5.971,5.462h12.815l5.898-5.607v-24.902l-5.972-5.461h-12.815Z"/><path class="cls-3" d="M365.007,504.468v38.737h-8.884v-50.752h11.578l21.262,35.825v-35.825h8.883v50.752h-9.757l-23.082-38.737Z"/><path class="cls-3" d="M451.875,492.453v6.99h-19.224v43.762h-8.592v-43.762h-18.786v-6.99h46.602Z"/><path class="cls-3" d="M459.811,492.453h36.044v7.354h-27.16v13.325h21.262v7.354h-21.262v14.637h29.271v8.082h-38.155v-50.752Z"/><path class="cls-3" d="M525.344,523.254l-14.053,19.951h-9.758l18.933-26.941-16.675-23.811h9.466l11.941,17.039,11.941-17.039h9.758l-16.82,24.029,18.859,26.723h-9.467l-14.126-19.951Z"/><path class="cls-3" d="M601.071,492.453v6.99h-19.224v43.762h-8.592v-43.762h-18.786v-6.99h46.602Z"/><path class="cls-3" d="M646.143,492.453h34.296l8.811,7.5v15.218l-8.592,7.646h-25.631v20.389h-8.884v-50.752ZM655.027,515.463h21.334l4.078-3.787v-8.446l-4.224-3.422h-21.188v15.655Z"/><path class="cls-3" d="M697.112,492.453h35.389l7.791,7.572v15.073l-8.665,5.024,4.951,3.058v9.175s.146,1.894.947,2.694c.437.51,1.019.729,1.528.801h1.675v7.354h-9.538l-3.495-3.568v-12.523l-4.879-4.297h-16.82v20.389h-8.884v-50.752ZM705.995,515.463h21.189l4.223-3.787v-8.155l-4.515-3.713h-20.897v15.655Z"/><path class="cls-3" d="M792.063,501.773v31.82l-8.883,9.611h-24.612l-8.956-9.394v-31.819l8.884-9.539h24.466l9.102,9.32ZM764.393,499.808l-5.897,5.606v24.902l5.971,5.462h12.815l5.898-5.607v-24.902l-5.972-5.461h-12.815Z"/><path class="cls-3" d="M846.82,492.453v6.99h-19.224v43.762h-8.592v-43.762h-18.786v-6.99h46.602Z"/><path class="cls-3" d="M896.551,501.773v31.82l-8.883,9.611h-24.612l-8.956-9.394v-31.819l8.884-9.539h24.466l9.102,9.32ZM868.881,499.808l-5.897,5.606v24.902l5.971,5.462h12.815l5.898-5.607v-24.902l-5.972-5.461h-12.815Z"/><path class="cls-3" d="M940.749,504.613l-5.68-4.806h-13.835l-5.825,5.097v25.34l5.68,5.606h14.563l5.097-4.878v-8.01h8.884v11.577l-9.394,8.665h-24.466l-9.247-8.665v-32.84l9.393-9.247h24.757l8.957,8.446v10.049h-8.884v-6.335Z"/><path class="cls-3" d="M1000.821,501.773v31.82l-8.883,9.611h-24.612l-8.956-9.394v-31.819l8.884-9.539h24.466l9.102,9.32ZM973.152,499.808l-5.897,5.606v24.902l5.971,5.462h12.815l5.898-5.607v-24.902l-5.972-5.461h-12.815Z"/><path class="cls-3" d="M1022.23,492.453v42.16h26.505v8.592h-35.389v-50.752h8.884Z"/><g id="Right_Brace"><path class="cls-1" d="M1138.481,294.048c-9.046-9.51-15.361-18.479-18.947-26.899-3.121-9.356-4.678-21.052-4.678-35.086v-97.073l-.468-11.461c0-14.502-1.718-23.702-5.146-27.602-3.274-4.21-10.917-6.315-22.923-6.315h-13.333v-43.741h17.075c24.948-.311,43.233,6.63,54.853,20.818,11.615,14.192,17.426,36.57,17.426,67.132v96.838c0,13.256,1.638,22.77,4.912,28.537,3.429,5.771,9.591,9.748,18.479,11.929.778.314,1.479.548,2.104.702.621.157,1.246.314,1.871.468l2.808.702v44.91c-1.561,1.871-3.823,3.121-6.783,3.742-15.596,2.964-23.392,15.596-23.392,37.894v102.687c0,54.109-23.314,81.167-69.938,81.167l-10.994-.234c-3.589,0-6.396-.782-8.421-2.339v-43.508h13.567c12.316,0,20.116-2.496,23.391-7.484,3.274-4.836,4.912-16.922,4.912-36.256v-98.242c0-16.06,1.714-28.223,5.146-36.49,3.429-9.042,9.591-17.31,18.479-24.794Z"/></g><g id="Left_Brace"><path class="cls-1" d="M61.125,294.217c9.356,9.356,15.591,18.245,18.713,26.666,3.274,8.421,4.912,20.116,4.912,35.086v96.839l.468,11.462c0,14.655,1.637,23.936,4.912,27.835,3.585,4.053,11.304,6.082,23.156,6.082h13.333v43.74h-17.075c-24.951.312-43.236-6.63-54.852-20.817-11.619-14.191-17.427-36.57-17.427-67.132v-96.605c0-13.099-1.718-22.531-5.146-28.303-3.432-5.925-9.514-9.978-18.245-12.163-.782-.311-1.484-.545-2.105-.702-.625-.153-1.25-.311-1.871-.468l-2.807-.701v-44.911c1.557-1.871,3.819-3.117,6.783-3.742,15.592-2.96,23.391-15.515,23.391-37.66v-103.154c0-54.11,23.234-81.167,69.705-81.167l10.994.234c3.742,0,6.626.782,8.654,2.339v43.507h-13.801c-12.32,0-20.116,2.497-23.391,7.485-3.121,4.992-4.678,17.075-4.678,36.256v98.476c0,7.642-.432,14.466-1.287,20.467-.858,6.005-2.222,11.462-4.093,16.374-1.872,4.912-4.328,9.356-7.368,13.333-3.041,3.977-6.667,7.759-10.877,11.345Z"/></g><path class="cls-3" d="M789.186,119.431h225.632l57.965,49.342v100.122l-56.527,50.3h-168.626v134.134h-58.443V119.431ZM847.629,270.81h140.362l26.826-24.911v-55.569l-27.785-22.516h-139.403v102.996Z"/><polygon id="A" class="cls-3" points="316.616 119.431 236.136 119.431 127.871 453.327 186.315 453.327 214.356 366.533 214.183 366.476 233.281 307.697 233.261 307.697 236.004 299.317 240.211 286.367 240.239 286.376 276.376 175.959 319.49 307.697 268.449 307.697 251.484 359.913 336.257 359.913 366.916 453.327 425.359 453.327 316.616 119.431"/><g id="C"><path class="cls-2" d="M676.682,119.431h-162.877l-61.797,60.839v29.621l36.298-18.955c1.347-6.842,10.992-9.376,15.521-4.045l23.926-.681,21.022-18.395h91.02l37.366,31.617v41.677h58.443v-66.109l-58.923-55.569Z"/><path class="cls-2" d="M677.161,372.848l-33.534,32.097h-50.667l.229,3.665-6.675,4.746-9.407-2.958-2.569-5.452h-26.721l-37.366-36.887v-16.729l-6.907-.516c-5.892,6.237-17.213.373-15.349-8.128l-11.323-14.25c-2.993-.143-5.613-1.727-7.17-4.082l-17.694-2.429v74.397l60.839,57.007h160.961l61.797-57.007v-76.169h-58.443v52.695Z"/></g><path class="cls-1" d="M428.243,262.909c2.651,3.141,4.374,6.716,5.213,10.658.315,1.955.208,4.045.676,5.951.616,2.9,2.377,5.44,3.754,8.043,1.258,2.663,2.439,5.38,3.283,8.195,1.009,3.787,1.683,7.682,1.472,11.862-.006.215-.308.322-.439.142-3.818-4.901-6.049-10.263-7.257-16.168-1.06-3.792-.66-7.976-2.231-11.618-.732-1.82-2.039-3.456-2.924-5.227-.881-1.774-1.307-3.694-1.678-5.628-.337-1.947-.542-3.938-.308-6.069.018-.209.303-.306.439-.142h0Z"/><path class="cls-1" d="M465.074,279.283c-1.109,2.914-2.744,5.497-4.839,7.754-1.08,1.076-2.369,1.986-3.374,3.122-1.009,1.132-1.839,2.406-2.573,3.755-1.448,2.694-3.174,5.192-5.071,7.571-1.982,2.293-4.109,4.47-6.688,6.291-.108.08-.277-.041-.217-.172,1.802-4.343,4.377-8.047,7.536-11.411,1.949-2.31,4.601-4.07,6.312-6.588,1.568-2.598,2.831-5.43,5.141-7.515,1.083-1.073,2.199-2.121,3.555-2.978.109-.073.267.044.217.172h0Z"/><path class="cls-1" d="M428.079,262.853c3.412.469,6.628,1.535,9.644,3.123,1.467.84,2.827,1.924,4.333,2.676,1.503.758,3.099,1.305,4.743,1.742,3.28.854,6.44,2.027,9.525,3.394,3.026,1.472,5.977,3.114,8.697,5.282.111.082.03.283-.111.254-5.119-.846-9.816-2.606-14.324-5.009-3.035-1.436-5.715-3.691-8.889-4.844-3.218-.994-6.585-1.636-9.49-3.476-1.465-.844-2.914-1.726-4.24-2.888-.102-.085-.028-.275.111-.254h0Z"/><path class="cls-1" d="M442.447,307.507c3.462-.777,7.081-.728,10.514.074,1.689.474,3.33,1.298,5.037,1.645,3.415.778,7.037-.078,10.487.278,3.504.123,6.937.64,10.291,1.706,1.682.525,3.356,1.106,4.992,1.967.156.077.128.336-.05.366-5.254.99-10.556.659-15.707-.58-3.418-.586-6.676-2.386-10.174-2.557-1.737-.126-3.539.226-5.294.227-2.629-.062-5.201-.718-7.672-1.616-.834-.311-1.662-.668-2.474-1.146-.148-.082-.12-.328.05-.366h0Z"/><path class="cls-1" d="M465.148,279.097c2.738,2.079,4.746,4.7,6.031,7.806.546,1.553.743,3.299,1.416,4.782.941,2.278,2.834,4.042,4.395,5.925,1.467,1.957,2.876,3.977,4.004,6.14,1.407,2.934,2.535,6.02,2.931,9.51.026.189-.217.33-.364.2-4.009-3.317-6.7-7.306-8.58-11.965-1.453-2.931-1.681-6.452-3.561-9.164-.892-1.363-2.26-2.465-3.278-3.758-1.015-1.297-1.655-2.801-2.246-4.326-.565-1.543-1.02-3.146-1.111-4.95-.014-.185.215-.314.364-.2h0Z"/><path class="cls-1" d="M476.555,238.771c-3.24,3.392-7.051,5.909-11.344,7.617-2.153.75-4.505,1.104-6.585,1.997-3.174,1.262-5.814,3.595-8.581,5.567-2.843,1.86-5.749,3.651-8.804,5.125-4.126,1.856-8.41,3.397-13.113,4.108-.217.038-.379-.256-.208-.412,5.063-4.946,10.839-8.387,17.282-10.898,4.12-1.906,8.863-2.433,12.754-4.82,1.955-1.142,3.639-2.822,5.522-4.106,1.886-1.281,3.987-2.136,6.111-2.938,2.142-.771,4.347-1.418,6.759-1.652.213-.026.363.254.208.412h0Z"/><path class="cls-1" d="M455.236,223.033c-.895,4.123-2.707,7.779-5.35,10.967-1.374,1.502-3.116,2.757-4.357,4.349-1.947,2.347-2.904,5.371-4.148,8.134-1.364,2.705-2.819,5.384-4.559,7.857-2.418,3.228-5.128,6.258-8.608,8.77-.173.131-.446-.042-.383-.258,1.589-6.173,4.525-11.383,8.515-16.119,2.39-3.271,5.991-5.636,7.947-9.215,1.01-1.748,1.521-3.832,2.398-5.67.882-1.836,2.16-3.405,3.484-4.938,1.355-1.516,2.824-2.953,4.677-4.133.175-.118.43.048.383.258h0Z"/><path class="cls-1" d="M501.907,198.692c-3.08,3.378-6.744,5.894-10.904,7.607-2.087.752-4.379,1.111-6.391,2.005-3.073,1.264-5.598,3.593-8.254,5.56-2.733,1.857-5.531,3.647-8.483,5.121-3.989,1.857-8.141,3.402-12.723,4.123-.216.039-.38-.25-.214-.409,4.827-4.93,10.386-8.368,16.63-10.886,3.983-1.907,8.607-2.444,12.354-4.83,1.884-1.141,3.488-2.816,5.298-4.099,1.813-1.279,3.847-2.135,5.904-2.939,2.076-.773,4.216-1.422,6.57-1.663.212-.027.364.248.214.409h0Z"/><path class="cls-1" d="M476.314,238.751c-2.529-.006-4.689-.801-6.352-2.547-.716-.893-1.166-2.149-1.978-2.911-.799-.78-1.828-1.245-2.982-1.539-4.624-1.233-8.31-3.921-10.093-8.664-.069-.18.08-.385.272-.373,2.659.109,4.769.968,6.671,2.112,1.842,1.316,3.425,2.906,4.642,4.885.629,1.012,1.384,1.852,2.369,2.377.972.543,2.305.592,3.373,1.005,1.068.416,1.853,1.218,2.6,2.061.729.875,1.376,1.863,1.75,3.222.052.18-.086.368-.273.373h0Z"/><path class="cls-1" d="M464.744,279.134c-.569-3.691-.142-7.244,1.24-10.619.765-1.612,1.963-3.102,2.572-4.758.637-1.648.874-3.409.936-5.22.088-3.591.725-7.073,1.715-10.485,1.15-3.332,2.639-6.567,5.022-9.55.128-.168.426-.091.444.126.622,5.62-.32,10.742-2.429,15.768-1.089,3.332-3.66,6.258-4.255,9.767-.348,1.73-.107,3.626-.299,5.4-.195,1.774-.85,3.419-1.559,5.044-.744,1.618-1.622,3.198-2.944,4.653-.134.155-.413.08-.444-.126h0Z"/><path class="cls-1" d="M497.481,272.954c-2.469,1.441-5.127,2.291-7.926,2.593-1.388.089-2.828-.082-4.198.102-3.996.694-7.689,2.822-11.984,3.405-2.733.403-5.501.623-8.38.279-.132-.013-.178-.209-.053-.272,3.796-2.05,7.761-3.114,11.957-3.541,2.718-.44,5.615.004,8.288-.748,2.615-.902,5.149-2.183,8-2.215,1.386-.1,2.788-.122,4.242.125.128.018.17.206.053.272h0Z"/><path class="cls-1" d="M535.059,280.505c-3.138,4.268-7.069,7.577-11.687,9.98-2.326,1.079-4.945,1.704-7.165,2.946-4.53,2.383-7.697,6.828-11.855,9.721-3.983,3.227-8.294,5.897-13.025,7.911-2.377.999-4.787,1.948-7.434,2.53-.252.062-.471-.256-.301-.465,6.437-8.184,15.312-13.818,24.91-17.585,2.414-.942,4.71-2.068,6.734-3.613,2.044-1.515,3.688-3.648,5.626-5.326,1.941-1.676,4.194-2.872,6.479-4.007,2.312-1.101,4.714-2.061,7.417-2.557.249-.052.458.256.301.465h0Z"/><path class="cls-1" d="M501.619,336.23c-2.585-.834-4.575-2.352-5.841-4.627-.519-1.132-.686-2.544-1.332-3.576-.629-1.045-1.563-1.848-2.664-2.518-4.386-2.741-7.497-6.618-8.22-12.006-.028-.195.178-.36.362-.287,2.665.972,4.603,2.522,6.264,4.291,1.555,1.917,2.794,4.029,3.574,6.429.404,1.224.975,2.315,1.851,3.164.859.863,2.197,1.344,3.182,2.106.985.765,1.595,1.828,2.157,2.92.536,1.119.964,2.324,1.03,3.816.011.19-.179.341-.362.287h0Z"/><path class="cls-1" d="M476.583,238.376c3.339.462,6.241,1.802,8.662,4.007,1.111,1.143,1.962,2.654,3.166,3.664,1.187,1.034,2.612,1.728,4.142,2.272,6.133,2.21,11.385,5.819,14.783,11.635.106.177-.06.422-.265.378-3.414-.585-6.294-1.931-8.972-3.565-2.608-1.8-4.982-3.877-6.998-6.379-1.033-1.254-2.17-2.358-3.546-3.123-1.359-.788-3.07-1.075-4.522-1.731-1.452-.659-2.63-1.709-3.771-2.802-1.123-1.125-2.166-2.364-2.944-3.98-.091-.178.066-.404.265-.378h0Z"/><path class="cls-1" d="M497.271,272.677c-.392-1.676-.207-3.282,1.094-4.202.642-.347,1.641-.419,2.155-.864.531-.432.753-1.101.807-1.901.223-3.202,2.095-5.444,5.694-5.707.177-.014.334.111.366.281.55,3.174-.535,5.141-2.976,6.537-.926.439-2.319.688-2.71,1.698-.417.907.125,2.43-.791,3.174-.913.855-1.747,1.233-3.273,1.265-.175-.001-.322-.12-.366-.282h0Z"/><path class="cls-1" d="M534.773,280.459c-3.093-.357-5.756-1.57-7.922-3.661-.98-1.079-1.694-2.523-2.769-3.472-1.062-.966-2.353-1.617-3.769-2.096-5.652-1.982-10.396-5.366-13.245-10.9-.095-.179.069-.411.271-.374,3.18.478,5.814,1.708,8.24,3.224,2.358,1.682,4.472,3.637,6.22,6.004.893,1.199,1.911,2.225,3.158,2.936,1.234.729,2.828.962,4.157,1.561,1.329.601,2.378,1.589,3.388,2.619.992,1.062,1.903,2.236,2.542,3.784.079.18-.075.394-.271.374h0Z"/><path class="cls-1" d="M497.336,272.891c-2.527-2.32-4.553-5.019-6.118-8.032-.722-1.521-1.217-3.181-2.021-4.652-.799-1.474-1.793-2.828-2.891-4.119-2.199-2.561-4.119-5.315-5.866-8.186-1.638-2.923-3.118-5.944-4.108-9.264-.045-.131.137-.249.236-.145,3.711,3.597,6.553,7.704,8.875,12.233,1.666,2.899,2.574,6.268,4.515,9.014,2.069,2.64,4.461,5.077,5.789,8.233.719,1.523,1.402,3.068,1.824,4.773.035.128-.134.241-.236.145h0Z"/><path class="cls-1" d="M523.001,233.875c-3.602,1.95-7.438,2.903-11.453,2.915-1.97-.093-3.987-.626-5.94-.56-2.954.008-5.789,1.211-8.607,2.025-2.852.685-5.743,1.283-8.659,1.532-3.898.211-7.834.071-11.866-.993-.209-.05-.252-.367-.049-.459,5.556-2.731,11.238-3.815,17.242-3.785,3.914-.26,7.911.99,11.783.2,1.924-.343,3.784-1.286,5.692-1.789,1.909-.498,3.868-.522,5.829-.488,1.968.069,3.95.277,5.98.944.2.06.237.359.049.459h0Z"/><path class="cls-1" d="M534.64,280.341c-2.755-3.278-4.407-7.016-4.954-11.152-.151-2.031.221-4.197-.118-6.18-.314-1.99-1.081-3.863-2.095-5.674-2.956-5.363-4.892-11.185-5.126-17.318-.084-2.105-.045-4.184.361-6.302.033-.167.196-.274.362-.241,1.549,1.534,2.517,3.57,3.519,5.458,1.839,3.655,2.93,7.506,3.399,11.55.825,3.909-.135,8.288,1.312,12.084.655,1.902,2.021,3.623,2.864,5.477.84,1.857,1.125,3.856,1.343,5.866.176,2.025.191,4.091-.33,6.295-.05.238-.379.326-.537.137h0Z"/><path class="cls-1" d="M564.539,225.871c-.734,5.327-2.627,10.195-5.556,14.598-1.539,2.103-3.553,3.949-4.921,6.144-1.399,2.178-2.358,4.593-3.125,7.112-1.484,5.019-3.587,9.757-6.077,14.317-2.714,4.514-5.756,8.741-9.708,12.361-.191.177-.537.003-.488-.263,1.78-10.426,6.926-19.781,13.602-27.855,1.682-2.026,3.172-4.155,4.222-6.521,1.081-2.349,1.515-5.047,2.426-7.489.914-2.441,2.332-4.611,3.808-6.744,1.516-2.115,3.179-4.151,5.329-5.925.193-.167.527.003.488.263h0Z"/><path class="cls-1" d="M512.804,321.87c2.414-2.391,5.265-3.901,8.512-4.506,1.596-.199,3.329.032,4.875-.321,1.555-.325,2.984-1.046,4.356-1.94,2.697-1.798,5.61-3.084,8.663-4.036,3.071-.773,6.249-1.21,9.711-.763.206.021.301.302.141.44-3.827,3.453-8.093,5.338-12.949,6.195-3.036.824-6.553.189-9.468,1.522-1.464.611-2.74,1.805-4.155,2.57-1.416.763-2.979,1.071-4.554,1.324-1.589.219-3.22.306-4.992-.047-.198-.035-.284-.297-.141-.44h0Z"/><path class="cls-1" d="M501.655,335.972c-.08-1.773.421-3.272,1.705-4.34.65-.434,1.577-.649,2.125-1.163.565-.501.869-1.209,1.058-2.007.346-1.553,1.042-2.904,2.015-4.096,1.048-1.067,2.318-1.959,4.171-2.39.127-.03.254.049.284.177.038,1.905-.562,3.391-1.36,4.661-.936,1.221-2.09,2.208-3.522,2.903-.733.368-1.352.827-1.71,1.492-.374.652-.37,1.604-.643,2.336-.277.729-.856,1.219-1.464,1.686-.635.446-1.356.823-2.367.972-.144.022-.278-.084-.29-.229h0Z"/><path class="cls-1" d="M536.589,338.963c-2.846,1.596-5.814,2.118-8.854,1.378-1.424-.464-2.807-1.468-4.246-1.738-1.436-.297-2.907-.128-4.397.296-5.8,1.67-12.34,1.111-17.313-2.537-.186-.139-.164-.443.041-.553,2.75-1.466,5.864-2.013,8.902-2.026,2.185.091,4.357.618,6.472,1.217,2.065.766,4.197,2.018,6.427,1.82,1.462-.054,2.98-.841,4.457-1.088,1.479-.249,2.916.085,4.34.478,1.426.439,2.839,1.043,4.211,2.2.177.144.155.436-.041.553h0Z"/><path class="cls-1" d="M549.203,310.618c.415,2.817-.069,5.415-1.544,7.723-.788,1.054-1.989,1.926-2.629,3.045-.66,1.11-.964,2.377-1.072,3.729-.498,5.419-2.583,10.244-7.136,13.665-.158.121-.407.014-.423-.186-.325-2.943.201-5.513,1.049-7.94,1.028-2.4,2.375-4.614,4.195-6.557.923-.994,1.652-2.074,2.023-3.311.392-1.228.223-2.702.467-3.995.247-1.294.931-2.396,1.665-3.469.769-1.062,1.664-2.069,2.982-2.889.161-.105.391-.004.423.186h0Z"/><path class="cls-1" d="M535.113,280.38c-.403,4.114-1.766,7.867-4.009,11.245-1.183,1.603-2.758,2.999-3.799,4.677-1.651,2.485-2.244,5.536-3.151,8.357-1.033,2.777-2.158,5.539-3.589,8.126-2.013,3.392-4.338,6.619-7.486,9.413-.158.147-.446.005-.408-.215.851-6.189,3.142-11.567,6.537-16.591,1.981-3.431,5.264-6.093,6.78-9.784.795-1.807,1.056-3.896,1.709-5.778.658-1.881,1.739-3.54,2.867-5.168,1.162-1.614,2.448-3.163,4.141-4.497.161-.134.431.003.408.215h0Z"/><path class="cls-1" d="M548.782,310.622c-2.495-1.747-4.208-4.031-5.057-6.848-.317-1.386-.226-2.962-.69-4.28-.444-1.327-1.241-2.49-2.231-3.562-1.957-2.102-3.441-4.486-4.61-7.056-.992-2.606-1.664-5.36-1.494-8.506.006-.202.26-.323.419-.195,3.656,2.847,5.826,6.31,7.05,10.521,1.038,2.563.686,5.787,2.217,8.17.71,1.203,1.975,2.148,2.831,3.283.855,1.137,1.276,2.478,1.645,3.835.337,1.377.547,2.813.34,4.443-.021.194-.257.305-.419.195h0Z"/><path class="cls-1" d="M502.034,198.636c-.463,4.201-2.015,7.919-4.618,11.107-1.358,1.479-3.173,2.669-4.367,4.252-1.216,1.569-2.037,3.387-2.642,5.343-2.428,7.7-6.911,14.857-13.722,19.376-1.082.471.116-2.979.152-3.41.779-2.926,1.987-5.733,3.45-8.339,2.111-3.392,4.567-6.523,7.556-9.249,1.507-1.384,2.799-2.905,3.695-4.677.919-1.757,1.216-3.907,1.971-5.767.758-1.86,2.001-3.415,3.298-4.928,1.336-1.493,2.813-2.897,4.758-4.004.208-.125.495.052.469.296h0Z"/><path class="cls-1" d="M522.779,233.765c-3.028-2.024-5.279-4.679-6.746-7.915-.627-1.618-.869-3.469-1.635-5.004-.741-1.55-1.838-2.885-3.092-4.127-2.508-2.435-4.562-5.197-6.324-8.169-1.593-3.033-2.884-6.248-3.38-9.943-.033-.208.225-.37.396-.238,4.447,3.263,7.464,7.325,9.613,12.177,1.635,2.989,1.961,6.781,4.063,9.531.998,1.395,2.522,2.474,3.659,3.785,1.136,1.314,1.862,2.875,2.538,4.461.646,1.607,1.173,3.286,1.305,5.203.019.203-.225.353-.396.238h0Z"/><path class="cls-1" d="M551.835,197.34c-3.969,1.975-8.139,2.762-12.449,2.389-2.095-.298-4.205-1.136-6.294-1.239-2.09-.13-4.166.208-6.236.801-6.125,1.71-12.466,2.321-18.741,1.206-2.149-.379-4.249-.871-6.308-1.733-.155-.067-.227-.246-.16-.401,1.911-1.191,4.204-1.674,6.343-2.242,4.131-.994,8.287-1.213,12.494-.785,4.156.052,8.375,1.948,12.556,1.368,2.08-.222,4.139-1.179,6.213-1.595,2.076-.413,4.169-.253,6.258-.025,2.094.272,4.193.71,6.307,1.702.224.099.239.444.016.554h0Z"/><path class="cls-1" d="M522.796,233.503c1.109-3.926,3.096-7.325,5.881-10.195,1.437-1.339,3.222-2.403,4.534-3.841,2.049-2.11,3.161-4.97,4.539-7.546,1.494-2.51,3.077-4.988,4.928-7.239,2.561-2.925,5.399-5.631,8.967-7.762.182-.115.438.076.363.286-1.91,5.864-5.087,10.669-9.286,14.927-2.537,2.97-6.214,4.946-8.341,8.256-1.093,1.61-1.712,3.594-2.679,5.304-.971,1.708-2.318,3.12-3.706,4.494-1.419,1.353-2.947,2.621-4.837,3.602-.183.101-.422-.081-.363-.286h0Z"/><path class="cls-1" d="M507.084,260.074c.479-2.634,1.52-5.019,3.069-7.145.812-1.012,1.852-1.888,2.581-2.95.74-1.055,1.268-2.236,1.704-3.472.845-2.465,1.99-4.777,3.324-6.993,1.428-2.141,3.015-4.187,5.096-5.939.098-.087.271.009.238.142-.862,3.949-2.569,7.367-4.909,10.536-1.39,2.155-3.557,3.853-4.685,6.183-.977,2.385-1.616,4.964-3.401,6.948-.802,1.018-1.674,1.995-2.78,2.831-.1.08-.263-.012-.238-.142h0Z"/><path class="cls-1" d="M552.839,247.022c-2.819-.223-5.454-1.037-7.891-2.382-1.174-.716-2.24-1.676-3.453-2.304-1.208-.64-2.515-1.054-3.866-1.371-2.693-.607-5.269-1.532-7.771-2.653-2.44-1.224-4.805-2.619-6.937-4.539-.1-.086-.026-.273.112-.253,4.241.478,8.055,1.86,11.693,3.898,2.449,1.185,4.538,3.197,7.13,4.101,2.63.748,5.41,1.138,7.736,2.735,1.178.706,2.324,1.486,3.359,2.516.094.089.021.266-.112.253h0Z"/><path class="cls-1" d="M564.33,225.921c-3.063,1.85-6.536,2.965-10.075,3.309-1.767.094-3.6-.16-5.342.06-3.513.36-6.702,2.335-10.113,3.106-3.389,1.009-6.836,1.622-10.385,1.691-1.776.043-3.563.031-5.403-.259-.172-.023-.229-.277-.07-.363,4.707-2.628,9.88-4.017,15.201-4.498,3.455-.543,7.148.115,10.546-.847,1.701-.439,3.311-1.351,4.987-1.916,2.533-.786,5.202-.991,7.852-.935.897.026,1.803.099,2.732.29.167.03.219.273.069.363h0Z"/><path class="cls-1" d="M552.039,196.971c2.369,1.647,3.963,3.807,4.672,6.493.247,1.313.08,2.807.475,4.055.375,1.258,1.107,2.36,2.035,3.377,3.672,4.123,5.835,9.004,5.287,14.75-.017.199-.267.309-.424.184-2.398-1.799-3.944-3.968-5.167-6.278-1.08-2.422-1.808-4.953-2.015-7.648-.111-1.372-.418-2.66-1.082-3.792-.644-1.141-1.849-2.037-2.641-3.114-.791-1.079-1.143-2.349-1.442-3.635-.266-1.305-.405-2.665-.121-4.209.031-.19.263-.292.424-.184h0Z"/><path class="cls-1" d="M597.842,265.228c-4.03-.671-7.894-2.179-11.347-4.325-1.678-1.135-3.193-2.584-4.93-3.605-2.578-1.601-5.599-2.355-8.45-3.36-2.811-1.111-5.607-2.289-8.269-3.712-3.495-1.999-6.876-4.219-9.906-7.12-.136-.121-.012-.372.169-.328,6.125,1.236,11.612,3.647,16.803,6.908,3.529,1.962,6.466,4.968,10.198,6.553,1.839.823,3.898,1.217,5.796,1.925,2.821,1.123,5.39,2.782,7.788,4.643.805.634,1.588,1.309,2.315,2.092.122.125.009.359-.169.328h0Z"/><path class="cls-1" d="M593.677,241.604c-3.046.11-5.791-.682-8.168-2.418-1.089-.915-1.967-2.229-3.132-3.001-1.155-.792-2.492-1.239-3.93-1.499-5.75-1.106-10.793-3.732-14.261-8.743-.117-.165.013-.415.217-.408,3.153-.004,5.869.813,8.421,1.941,2.507,1.303,4.81,2.911,6.809,4.977,1.02,1.046,2.14,1.903,3.443,2.416,1.292.533,2.872.525,4.24.915,1.368.393,2.513,1.208,3.626,2.07,1.099.896,2.134,1.915,2.951,3.342.101.168-.021.398-.217.408h0Z"/><path class="cls-1" d="M595.784,211.489c-4.088.63-7.985.091-11.633-1.604-1.726-.93-3.286-2.375-5.071-3.12-1.777-.77-3.698-1.095-5.696-1.177-7.878-.362-15.754-2.863-21.642-8.261-.712-.919,2.847-.653,3.271-.728,2.957,0,5.909.445,8.73,1.187,3.722,1.166,7.275,2.732,10.569,4.913,1.672,1.098,3.421,1.954,5.314,2.364,1.885.435,3.995.171,5.939.421,1.945.254,3.715,1.054,5.458,1.916,1.734.905,3.416,1.969,4.93,3.561.17.171.071.49-.17.528h0Z"/><path class="cls-1" d="M534.842,280.003c4.574-3.067,9.583-4.96,14.941-5.777,2.657-.287,5.443-.049,8.053-.525,5.271-.826,9.928-4.047,15.015-5.477,5.03-1.803,10.189-2.972,15.531-3.385,2.679-.195,5.373-.332,8.172-.044.26.021.366.397.133.538-6.898,4.319-14.594,6.83-22.582,7.977-5.169,1.097-10.789.409-15.841,2.127-2.532.792-4.889,2.297-7.375,3.277-2.488.977-5.113,1.399-7.751,1.752-2.651.312-5.341.462-8.164.075-.255-.029-.354-.393-.133-.538h0Z"/><path class="cls-1" d="M582.573,298.78c-4.51.272-8.747-.636-12.667-2.662-1.863-1.094-3.532-2.693-5.464-3.605-1.923-.937-4.012-1.437-6.193-1.699-6.441-.817-12.656-2.732-18.151-6.215-1.881-1.189-3.675-2.465-5.288-4.068-.118-.119-.117-.312.002-.43,2.265-.36,4.613.098,6.848.407,4.281.698,8.288,2.121,12.094,4.161,3.902,1.674,7.158,5.075,11.325,6.174,2.048.609,4.359.53,6.476.957,2.118.431,4.032,1.397,5.916,2.424,1.872,1.07,3.684,2.295,5.299,4.038.171.176.052.504-.198.518h0Z"/><path class="cls-1" d="M596.834,265.152c.307,3.254-.329,6.277-1.923,9.017-.856,1.28-2.128,2.386-2.834,3.728-.733,1.331-1.083,2.821-1.264,4.382-.752,6.264-3.068,11.967-7.928,16.331-.151.139-.421.031-.426-.178-.206-3.359.447-6.359,1.425-9.225,1.155-2.834,2.631-5.498,4.597-7.902.981-1.227,1.794-2.525,2.223-3.982.456-1.446.347-3.128.654-4.637.31-1.509,1.061-2.834,1.862-4.133.836-1.288,1.8-2.522,3.19-3.579.156-.124.406-.021.426.178h0Z"/><path class="cls-1" d="M594.015,241.373c1.671,1.623,2.566,3.513,2.392,5.714-.177,1.021-.802,2.096-.819,3.098-.039,1.005.31,1.963.87,2.896,2.199,3.739,2.687,7.897.392,11.954-.092.165-.33.194-.459.055-1.708-1.795-2.491-3.702-2.93-5.65-.238-1.476-.114-3.015.074-4.509.325-1.474,1.056-3.099.573-4.569-.252-.97-1.113-1.867-1.527-2.817-.415-.953-.346-1.964-.228-2.973.156-1.019.45-2.054,1.202-3.144.103-.152.322-.178.458-.055h0Z"/><path class="cls-1" d="M582.734,298.696c-2.233,2.098-5.007,3.577-7.965,4.278-1.484.274-3.087.215-4.527.61-2.923.717-5.277,2.979-8.034,4.084-2.701,1.34-5.518,2.294-8.518,2.726-1.501.226-3.021.398-4.636.304-.169-.006-.257-.236-.124-.348,3.491-3.031,7.652-4.949,12.106-5.972,2.834-.888,6.088-.624,8.806-1.918,1.366-.605,2.57-1.664,3.893-2.39,2.012-1.032,4.253-1.508,6.502-1.726.767-.067,1.55-.09,2.373.002.164.014.245.233.124.348h0Z"/><path class="cls-1" d="M569.07,336.201c-2.596-1.282-4.639-3.151-6.119-5.549-.655-1.214-1.032-2.647-1.787-3.781-.739-1.147-1.739-2.087-2.854-2.937-2.221-1.665-4.125-3.627-5.81-5.794-1.56-2.229-2.898-4.634-3.654-7.5-.047-.161.141-.316.29-.229,3.841,2.115,6.628,5.007,8.808,8.617,1.588,2.191,2.219,5.151,4.154,7.104.93.996,2.238,1.693,3.269,2.609,1.027.919,1.752,2.077,2.448,3.259.67,1.202,1.252,2.473,1.545,3.973.035.159-.142.302-.29.229h0Z"/><path class="cls-1" d="M562.076,357.413c-2.903-.228-5.396-1.295-7.395-3.262-.892-1.013-1.52-2.392-2.507-3.274-.974-.9-2.177-1.485-3.505-1.897-5.305-1.714-9.696-4.846-12.195-10.106-.088-.18.071-.403.271-.374,3.003.345,5.46,1.442,7.711,2.825,2.185,1.551,4.123,3.376,5.696,5.608.806,1.133,1.736,2.093,2.896,2.738,1.146.663,2.652.829,3.893,1.361,1.241.535,2.202,1.457,3.125,2.421.905.996,1.728,2.104,2.281,3.587.071.18-.077.386-.271.374h0Z"/><path class="cls-1" d="M569.372,335.99c1.97.924,3.398,2.34,4.178,4.272.298.954.294,2.091.702,2.978.39.898,1.065,1.623,1.865,2.272,3.208,2.626,5.295,6.021,5.331,10.379,0,.12-.098.216-.217.216-2.067-.964-3.487-2.501-4.646-4.072-1.047-1.68-1.813-3.489-2.197-5.474-.207-1.009-.538-1.942-1.154-2.703-.598-.771-1.609-1.293-2.317-1.998-.704-.707-1.079-1.614-1.422-2.541-.314-.944-.534-1.945-.438-3.138.01-.152.177-.253.316-.192h0Z"/><path class="cls-1" d="M562.2,357.041c1.372-1.267,2.931-1.892,4.682-1.663.811.188,1.644.729,2.446.788.803.08,1.585-.172,2.358-.569,1.494-.794,3.068-1.186,4.708-1.269,1.6.057,3.219.395,4.885,1.475.107.069.137.212.068.318-1.487,1.323-3.114,1.876-4.698,2.144-1.636.13-3.248-.056-4.832-.65-.817-.294-1.625-.443-2.412-.26-.788.163-1.544.807-2.323,1.098-.78.286-1.584.188-2.392.053-.809-.169-1.625-.448-2.466-1.096-.117-.089-.129-.265-.024-.369h0Z"/><path class="cls-1" d="M569.39,336.144c.596,2.014.478,3.94-.463,5.711-.519.805-1.375,1.499-1.772,2.345-.417.839-.518,1.783-.481,2.773.096,1.939-.22,3.794-.838,5.587-.736,1.711-1.739,3.334-3.448,4.723-.094.076-.232.062-.308-.032-.621-2.12-.41-4.111.011-5.931.575-1.808,1.429-3.484,2.663-4.983.621-.772,1.103-1.589,1.27-2.512.186-.916-.086-1.983-.021-2.94.068-.955.503-1.788.972-2.61.501-.811,1.108-1.588,2.065-2.248.123-.087.304-.028.351.116h0Z"/><path class="cls-1" d="M583.977,404.129c-2.378-3.678-3.442-7.658-3.121-11.882.29-2.031,1.21-4.101,1.274-6.118.095-2.019-.354-4.004-1.102-5.97-2.137-5.732-3.051-11.937-1.912-17.996.387-2.11.91-4.152,1.851-6.154.089-.184.31-.262.495-.173,1.351,1.793,2.052,3.945,2.753,6.008,1.885,5.87,1.752,12.141.345,18.095-.496,2.044-.696,4.069-.349,6.061.314,1.993,1.485,3.933,2.026,5.912.539,1.982.408,4.005.198,6.026-.263,2.029-.709,4.07-1.814,6.152-.124.245-.492.271-.645.04h0Z"/><path class="cls-1" d="M562.462,357.107c3.466,2.982,5.916,6.626,7.362,10.854.597,2.106.706,4.442,1.479,6.465.749,2.034,1.921,3.869,3.325,5.595,2.79,3.408,4.995,7.151,6.827,11.106,1.657,4.082,2.912,8.403,3.096,12.864.011.251-.314.411-.501.236-4.894-4.495-8.344-10.318-10.401-16.583-1.678-3.964-1.694-8.724-3.961-12.456-1.067-1.884-2.8-3.455-4.043-5.256-1.241-1.804-1.964-3.853-2.622-5.926-.621-2.095-1.091-4.26-1.06-6.662-.003-.247.312-.401.501-.236h0Z"/><line class="cls-4" x1="581.29" y1="355.988" x2="612.396" y2="344.357"/><path class="cls-1" d="M624.831,317.661c.925,2.759.806,5.524-.873,7.686-.886.946-2.343,1.633-3.027,2.671-.702,1.029-.916,2.279-.853,3.654.358,5.322-2.374,10.622-7.388,12.818-.223.095-.481-.009-.576-.232-1.464-4.575-.014-9.334,3.223-12.712,1.344-1.302,3.305-2.497,3.698-4.387.432-1.79-.583-4.115.599-5.79,1.119-1.818,2.314-3.06,4.607-3.976.236-.089.5.03.589.267h0Z"/><path class="cls-1" d="M593.865,327.259c-1.378,2.091-3.207,3.443-5.557,3.852-1.127.098-2.409-.228-3.48.022-1.078.229-2.022.823-2.892,1.618-3.534,3.15-7.76,4.711-12.643,3.552-.188-.043-.275-.279-.16-.433,1.536-2.145,3.392-3.417,5.371-4.358,2.09-.796,4.263-1.225,6.558-1.133,1.178.041,2.282-.118,3.251-.643.977-.504,1.742-1.583,2.663-2.239.924-.655,2.014-.86,3.116-1.011,1.119-.118,2.286-.105,3.613.34.178.057.257.274.16.433h0Z"/><path class="cls-1" d="M581.078,355.896c-.411-2.876.085-5.535,1.568-7.908.794-1.088,2.001-1.998,2.646-3.15.666-1.143.973-2.442,1.085-3.824.514-5.538,2.611-10.493,7.196-14.063.156-.124.409-.018.424.183.32,3-.214,5.631-1.072,8.122-1.037,2.464-2.393,4.746-4.227,6.76-.929,1.03-1.663,2.144-2.039,3.412-.396,1.26-.23,2.762-.478,4.086-.251,1.325-.941,2.46-1.679,3.568-.774,1.097-1.676,2.138-3.001,2.997-.16.108-.393.008-.424-.183h0Z"/><line class="cls-4" x1="582.672" y1="298.522" x2="569.214" y2="336.086"/><path class="cls-1" d="M593.59,327.165c-2.297-.875-3.972-2.339-4.829-4.514-.314-1.06-.245-2.36-.696-3.334-.432-.986-1.194-1.765-2.137-2.431-3.757-2.721-6.095-6.454-5.911-11.377.006-.192.216-.324.391-.245,2.387,1.018,3.986,2.529,5.287,4.227,1.182,1.839,2.02,3.833,2.375,6.052.188,1.139.557,2.164,1.257,2.983.68.83,1.88,1.335,2.697,2.08.817.747,1.228,1.75,1.588,2.775.332,1.049.546,2.172.369,3.539-.022.185-.216.306-.391.245h0Z"/><path class="cls-1" d="M582.786,298.269c4.111-.166,7.898.806,11.307,2.899,1.597,1.117,2.97,2.726,4.647,3.666,1.666.964,3.526,1.503,5.491,1.808,7.741,1.244,15.235,4.615,20.42,10.632.598.992-2.888.329-3.317.355-2.921-.333-5.786-1.106-8.487-2.16-3.542-1.576-6.87-3.529-9.87-6.065-1.524-1.278-3.153-2.324-4.975-2.943-1.812-.644-3.927-.618-5.819-1.085-1.892-.471-3.548-1.463-5.17-2.515-1.608-1.093-3.146-2.339-4.456-4.088-.149-.189-.014-.494.229-.505h0Z"/><path class="cls-1" d="M593.717,326.822c1.972-2.202,4.37-3.566,7.187-3.998,1.369-.112,2.872.206,4.193-.061,1.328-.246,2.541-.864,3.69-1.685,4.648-3.241,9.879-4.902,15.681-3.77.197.036.281.3.136.441-2.124,2.209-4.524,3.53-7.027,4.514-2.598.83-5.267,1.299-8.043,1.231-1.413-.029-2.763.146-3.997.693-1.241.526-2.302,1.637-3.495,2.318-1.196.679-2.534.901-3.882,1.067-1.363.133-2.767.133-4.307-.308-.188-.05-.264-.294-.136-.441h0Z"/><path class="cls-1" d="M618.785,293.971c1.879,1.428,3.016,3.222,3.137,5.457-.039,1.053-.515,2.216-.398,3.229.096,1.018.57,1.94,1.25,2.809,2.68,3.491,3.722,7.614,1.987,12.004-.068.177-.303.237-.448.114-1.935-1.593-2.967-3.415-3.662-5.324-.433-1.458-.517-3.025-.53-4.556.126-1.53.633-3.26-.041-4.68-.38-.946-1.354-1.74-1.892-2.646-.539-.908-.606-1.936-.623-2.969.018-1.047.172-2.129.772-3.324.082-.165.297-.22.448-.114h0Z"/><path class="cls-1" d="M645.736,295.975c-.332,2.896-1.522,5.251-3.787,6.849-1.132.658-2.653.94-3.644,1.734-1.011.774-1.686,1.874-2.177,3.151-1.856,4.976-6.028,9.088-11.392,10.011-.223.036-.427-.161-.399-.385.37-2.728,1.643-5.222,3.32-7.301,1.263-1.413,2.858-2.538,4.464-3.569,1.694-.887,3.826-1.514,4.898-3.149.758-1.019.987-2.549,1.606-3.703.619-1.157,1.659-1.908,2.735-2.612,1.113-.676,2.346-1.236,3.978-1.412.221-.026.417.163.399.385h0Z"/><path class="cls-1" d="M630.916,248.32c2.971,3.249,4.855,7.017,5.662,11.235.28,2.081.043,4.324.509,6.347.439,2.031,1.325,3.922,2.455,5.736,2.247,3.581,3.872,7.416,5.097,11.412,1.037,4.1,1.636,8.385,1.163,12.649-.32,1.173-2.25-2.145-2.546-2.453-2.953-4.37-4.907-9.268-5.798-14.446-1.072-3.982-.388-8.528-2.076-12.362-.775-1.925-2.252-3.63-3.213-5.498-.958-1.87-1.37-3.912-1.715-5.968-.304-2.073-.449-4.197-.066-6.486.035-.242.362-.35.529-.166h0Z"/><path class="cls-1" d="M596.499,264.815c1.873-2.945,4.406-4.984,7.613-5.992,1.575-.374,3.388-.261,4.877-.81,1.501-.524,2.797-1.469,3.98-2.642,3.443-3.375,7.682-5.957,12.466-6.852,1.674-.322,3.334-.513,5.095-.365.179.017.31.175.293.354-.872,1.569-2.179,2.778-3.462,3.944-3.017,2.744-6.724,4.241-10.617,5.242-2.342.463-4.978.545-6.968,1.924-1.346.84-2.37,2.341-3.631,3.355-1.264,1.013-2.782,1.511-4.321,1.945-1.563.397-3.2.644-5.081.393-.23-.026-.365-.299-.244-.498h0Z"/><path class="cls-1" d="M618.377,294.168c-2.971-1.378-5.266-3.456-6.836-6.218-.677-1.387-.995-3.045-1.801-4.334-.783-1.306-1.897-2.362-3.156-3.307-5.042-3.815-8.813-8.698-10.146-15.106-.044-.201.185-.38.368-.279,3.01,1.519,5.279,3.599,7.266,5.892,1.872,2.43,3.435,5.052,4.527,7.967.569,1.468,1.283,2.827,2.328,3.934,1.022,1.125,2.533,1.88,3.684,2.908,1.15,1.03,1.92,2.349,2.641,3.698.694,1.373,1.278,2.831,1.493,4.567.029.197-.186.362-.368.279h0Z"/><path class="cls-1" d="M582.643,298.293c2.665-1.881,5.598-2.829,8.762-2.805,1.532.108,3.121.663,4.633.61,1.516-.023,2.98-.46,4.422-1.077,2.835-1.251,5.79-1.961,8.823-2.316,3.016-.176,6.075-.002,9.25,1.094.196.062.236.35.057.458-4.178,2.658-8.496,3.701-13.216,3.621-2.99.233-6.184-1.059-9.151-.303-1.479.322-2.881,1.251-4.34,1.734-1.46.48-2.981.486-4.502.435-1.53-.087-3.077-.311-4.681-.993-.185-.074-.219-.342-.057-.458h0Z"/><path class="cls-1" d="M630.875,248.462c.53,4.094.044,8.052-1.384,11.84-.794,1.824-2.015,3.535-2.653,5.401-1.051,2.788-.945,5.89-1.195,8.839-.384,2.934-.861,5.873-1.675,8.712-1.201,3.751-2.743,7.411-5.183,10.834-.121.179-.433.105-.446-.118-.559-6.215.467-11.96,2.648-17.609,1.161-3.782,3.763-7.106,4.412-11.038.369-1.937.156-4.028.37-6.006.219-1.978.9-3.834,1.635-5.67.77-1.83,1.675-3.625,3.026-5.302.127-.166.421-.094.446.118h0Z"/><path class="cls-1" d="M645.522,296.013c-2.181,1.354-4.474,1.835-6.854,1.253-1.105-.37-2.18-1.19-3.295-1.398-1.114-.231-2.253-.072-3.406.299-4.648,1.435-9.283,1.144-13.421-1.908-.157-.114-.141-.368.03-.461,2.344-1.333,4.628-1.738,6.889-1.792,2.302.124,4.534.617,6.666,1.638,1.095.517,2.204.822,3.338.738,1.133-.062,2.305-.736,3.449-.959,1.145-.221,2.26.035,3.364.347,1.106.348,2.203.836,3.27,1.783.142.123.127.357-.03.461h0Z"/><path class="cls-1" d="M630.6,248.675c-3.234,1.238-6.454,1.359-9.596.248-1.469-.643-2.838-1.816-4.344-2.268-1.501-.478-3.089-.496-4.725-.263-6.384.912-13.217-.426-18.202-4.719-.177-.155-.119-.466.104-.544,3.128-1.117,6.491-1.257,9.717-.884,2.322.363,4.58,1.165,6.776,2.03,2.129,1.029,4.266,2.54,6.663,2.625,1.566.132,3.27-.458,4.873-.517,1.604-.056,3.102.453,4.58,1.026,1.474.617,2.917,1.398,4.257,2.723.167.16.112.458-.104.544h0Z"/><path class="cls-1" d="M534.882,280.408c-3.254.311-6.449,0-9.562-.866-1.526-.487-2.999-1.234-4.543-1.627-4.59-.999-9.43-.564-14.247-1.783-3.096-.75-6.155-1.682-9.102-3.178-.125-.058-.088-.268.054-.272,4.916-.329,9.615.323,14.274,1.647,3.096.713,6.023,2.302,9.195,2.709,3.179.242,6.429.108,9.487,1.244,1.525.49,3.041,1.022,4.498,1.854.116.063.084.26-.054.272h0Z"/><path class="cls-1" d="M596.008,211.234c.763,2.516.915,5.066.494,7.614-.266,1.245-.797,2.472-.968,3.723-.341,3.714.775,7.494.249,11.387-.304,2.506-.795,4.998-1.858,7.452-.049.121-.245.114-.276-.019-1.016-3.84-1.041-7.585-.387-11.396.265-2.5,1.43-4.945,1.381-7.484.004-1.263-.354-2.551-.446-3.821-.067-2.583.433-5.085,1.535-7.474.054-.115.24-.107.276.019h0Z"/><path class="cls-1" d="M630.449,248.593c-4.159-1.719-7.558-4.378-10.181-7.905-1.189-1.793-1.982-3.955-3.313-5.616-1.311-1.678-2.964-3.037-4.803-4.222-3.648-2.332-6.844-5.162-9.749-8.309-2.779-3.322-5.246-6.997-6.737-11.127-.229-1.213,3.012,1.016,3.411,1.166,4.646,2.757,8.614,6.421,11.747,10.797,2.761,3.202,4.184,7.672,7.436,10.473,1.568,1.438,3.673,2.374,5.383,3.679,1.709,1.308,2.999,3.009,4.236,4.752,1.207,1.775,2.293,3.665,2.975,5.932.076.233-.174.475-.405.379h0Z"/><path class="cls-1" d="M564.179,225.487c1.705-2.768,4.036-4.657,7.044-5.477,1.465-.28,3.155-.069,4.539-.526,2.151-.588,3.703-2.502,5.362-3.935,1.764-1.295,3.607-2.543,5.615-3.386,2.843-1.042,5.938-1.609,9.015-1.19,1.201.298-2.486,3.679-2.917,4.055-2.783,2.532-6.231,3.803-9.85,4.572-2.168.326-4.631.258-6.478,1.508-1.248.752-2.188,2.173-3.355,3.102-1.168.931-2.581,1.332-4.011,1.675-1.454.304-2.978.456-4.732.106-.224-.041-.346-.306-.231-.503h0Z"/><circle class="cls-1" cx="534.909" cy="280.272" r="4.919"/><circle class="cls-1" cx="551.827" cy="197.063" r="4.919"/><circle class="cls-1" cx="428.023" cy="262.98" r="4.919"/><circle class="cls-1" cx="455.045" cy="222.904" r="2.835"/><circle class="cls-1" cx="548.991" cy="310.525" r="2.835"/><circle class="cls-1" cx="501.8" cy="198.488" r="2.835"/><circle class="cls-1" cx="464.966" cy="279.197" r="2.835"/><circle class="cls-1" cx="512.874" cy="322.09" r="2.835"/><circle class="cls-1" cx="593.786" cy="327.042" r="2.835"/><circle class="cls-1" cx="507.203" cy="260.144" r="2.835"/><circle class="cls-1" cx="593.786" cy="241.4" r="2.835"/><circle class="cls-1" cx="569.214" cy="336.086" r="2.835"/><circle class="cls-1" cx="581.29" cy="355.988" r="2.835"/><circle class="cls-1" cx="536.61" cy="338.687" r="2.835"/><circle class="cls-1" cx="582.672" cy="298.522" r="2.835"/><circle class="cls-1" cx="476.451" cy="238.565" r="4.919"/><circle class="cls-1" cx="442.422" cy="307.69" r="4.919"/><circle class="cls-1" cx="595.869" cy="211.225" r="4.919"/><circle class="cls-1" cx="630.652" cy="248.403" r="4.919"/><circle class="cls-1" cx="624.537" cy="317.528" r="4.919"/><circle class="cls-1" cx="522.977" cy="233.646" r="4.919"/><circle class="cls-1" cx="564.295" cy="225.739" r="4.919"/><circle class="cls-1" cx="596.621" cy="265.064" r="4.919"/><circle class="cls-1" cx="497.454" cy="272.818" r="2.835"/><circle class="cls-1" cx="483.742" cy="313.36" r="2.835"/><circle class="cls-1" cx="612.396" cy="344.357" r="2.835"/><circle class="cls-1" cx="562.212" cy="357.226" r="2.835"/><circle class="cls-1" cx="584.299" cy="404.109" r="2.835"/><circle class="cls-1" cx="501.8" cy="336.086" r="2.835"/><circle class="cls-1" cx="645.537" cy="295.782" r="2.835"/><circle class="cls-1" cx="618.561" cy="294.028" r="4.023"/></g></svg>