<?xml version="1.0" encoding="UTF-8"?><svg id="Master_Logo_-_Dark" xmlns="http://www.w3.org/2000/svg" viewBox="0 0 1200 600"><defs><style>.cls-1{fill:#94a3b8;}.cls-2,.cls-3{fill:#0099e5;}.cls-4{fill:#b8bdc2;}.cls-5{fill:#e0f2ff;}.cls-3{stroke:#0099e5;stroke-linecap:round;stroke-linejoin:round;stroke-width:4.618px;}</style></defs><path class="cls-1" d="M175.225,529.176h-18.204l-4.587,14.199h-8.884l16.456-50.752h12.233l16.528,50.752h-8.883l-4.66-14.199ZM159.57,521.239h13.106l-6.554-20.024-6.553,20.024Z"/><path class="cls-1" d="M196.486,492.623h8.883v50.752h-8.883v-50.752Z"/><path class="cls-1" d="M285.611,504.783l-5.68-4.806h-13.835l-5.825,5.097v25.34l5.68,5.606h14.563l5.097-4.878v-8.01h8.884v11.577l-9.394,8.665h-24.466l-9.247-8.665v-32.84l9.393-9.247h24.758l8.956,8.446v10.049h-8.884v-6.335Z"/><path class="cls-1" d="M345.683,501.943v31.82l-8.883,9.611h-24.612l-8.956-9.394v-31.819l8.884-9.539h24.466l9.102,9.32ZM318.013,499.978l-5.897,5.606v24.902l5.971,5.462h12.815l5.898-5.607v-24.902l-5.972-5.461h-12.815Z"/><path class="cls-1" d="M364.979,504.638v38.737h-8.884v-50.752h11.578l21.262,35.825v-35.825h8.883v50.752h-9.757l-23.082-38.737Z"/><path class="cls-1" d="M451.847,492.623v6.99h-19.224v43.762h-8.592v-43.762h-18.786v-6.99h46.602Z"/><path class="cls-1" d="M459.782,492.623h36.044v7.354h-27.16v13.325h21.262v7.354h-21.262v14.637h29.271v8.082h-38.155v-50.752Z"/><path class="cls-1" d="M525.316,523.424l-14.053,19.951h-9.758l18.933-26.941-16.675-23.811h9.466l11.941,17.039,11.941-17.039h9.758l-16.82,24.029,18.859,26.723h-9.467l-14.126-19.951Z"/><path class="cls-1" d="M601.042,492.623v6.99h-19.224v43.762h-8.592v-43.762h-18.786v-6.99h46.602Z"/><path class="cls-1" d="M646.114,492.623h34.296l8.811,7.5v15.218l-8.592,7.646h-25.631v20.389h-8.884v-50.752ZM654.998,515.633h21.334l4.078-3.787v-8.446l-4.224-3.422h-21.188v15.655Z"/><path class="cls-1" d="M697.083,492.623h35.389l7.791,7.572v15.073l-8.665,5.024,4.951,3.058v9.175s.146,1.894.947,2.694c.437.51,1.019.729,1.528.801h1.675v7.354h-9.538l-3.495-3.568v-12.523l-4.879-4.297h-16.82v20.389h-8.884v-50.752ZM705.967,515.633h21.189l4.223-3.787v-8.155l-4.515-3.713h-20.897v15.655Z"/><path class="cls-1" d="M792.034,501.943v31.82l-8.883,9.611h-24.612l-8.956-9.394v-31.819l8.884-9.539h24.466l9.102,9.32ZM764.364,499.978l-5.897,5.606v24.902l5.971,5.462h12.815l5.898-5.607v-24.902l-5.972-5.461h-12.815Z"/><path class="cls-1" d="M846.791,492.623v6.99h-19.224v43.762h-8.592v-43.762h-18.786v-6.99h46.602Z"/><path class="cls-1" d="M896.523,501.943v31.82l-8.883,9.611h-24.612l-8.956-9.394v-31.819l8.884-9.539h24.466l9.102,9.32ZM868.853,499.978l-5.897,5.606v24.902l5.971,5.462h12.815l5.898-5.607v-24.902l-5.972-5.461h-12.815Z"/><path class="cls-1" d="M940.721,504.783l-5.68-4.806h-13.835l-5.825,5.097v25.34l5.68,5.606h14.563l5.097-4.878v-8.01h8.884v11.577l-9.394,8.665h-24.466l-9.247-8.665v-32.84l9.393-9.247h24.757l8.957,8.446v10.049h-8.884v-6.335Z"/><path class="cls-1" d="M1000.793,501.943v31.82l-8.883,9.611h-24.612l-8.956-9.394v-31.819l8.884-9.539h24.466l9.102,9.32ZM973.123,499.978l-5.897,5.606v24.902l5.971,5.462h12.815l5.898-5.607v-24.902l-5.972-5.461h-12.815Z"/><path class="cls-1" d="M1022.201,492.623v42.16h26.505v8.592h-35.389v-50.752h8.884Z"/><g id="Right_Brace"><path class="cls-2" d="M1138.452,294.217c-9.046-9.51-15.361-18.479-18.947-26.899-3.121-9.356-4.678-21.052-4.678-35.086v-97.073l-.468-11.461c0-14.502-1.718-23.702-5.146-27.602-3.274-4.21-10.917-6.315-22.923-6.315h-13.333v-43.741h17.075c24.948-.311,43.233,6.63,54.853,20.818,11.615,14.192,17.426,36.57,17.426,67.132v96.838c0,13.256,1.638,22.77,4.912,28.537,3.429,5.771,9.591,9.748,18.479,11.929.778.314,1.479.548,2.104.702.621.157,1.246.314,1.871.468l2.808.702v44.911c-1.561,1.871-3.823,3.121-6.783,3.742-15.596,2.964-23.392,15.596-23.392,37.894v102.687c0,54.109-23.314,81.167-69.938,81.167l-10.994-.234c-3.589,0-6.396-.782-8.421-2.339v-43.508h13.567c12.316,0,20.116-2.496,23.391-7.484,3.274-4.836,4.912-16.922,4.912-36.256v-98.242c0-16.06,1.714-28.223,5.146-36.49,3.429-9.042,9.591-17.31,18.479-24.794Z"/></g><g id="Left_Brace"><path class="cls-2" d="M61.097,294.387c9.356,9.356,15.591,18.245,18.713,26.666,3.274,8.421,4.912,20.116,4.912,35.086v96.839l.468,11.462c0,14.655,1.637,23.936,4.912,27.835,3.585,4.053,11.304,6.082,23.156,6.082h13.333v43.74h-17.075c-24.951.312-43.236-6.63-54.852-20.817-11.619-14.191-17.427-36.57-17.427-67.132v-96.605c0-13.099-1.718-22.531-5.146-28.303-3.432-5.925-9.514-9.978-18.245-12.163-.782-.311-1.484-.545-2.105-.702-.625-.153-1.25-.311-1.871-.468l-2.807-.701v-44.911c1.557-1.871,3.819-3.117,6.783-3.742,15.592-2.96,23.391-15.515,23.391-37.66v-103.154c0-54.11,23.234-81.167,69.705-81.167l10.994.234c3.742,0,6.626.782,8.654,2.339v43.507h-13.801c-12.32,0-20.116,2.497-23.391,7.485-3.121,4.992-4.678,17.075-4.678,36.256v98.476c0,7.642-.432,14.466-1.287,20.467-.858,6.005-2.222,11.462-4.093,16.374-1.872,4.912-4.328,9.356-7.368,13.333-3.041,3.977-6.667,7.759-10.877,11.345Z"/></g><path class="cls-5" d="M789.157,119.601h225.632l57.965,49.342v100.122l-56.527,50.3h-168.626v134.134h-58.443V119.601ZM847.601,270.98h140.362l26.826-24.911v-55.569l-27.785-22.516h-139.403v102.996Z"/><polygon id="A" class="cls-5" points="316.587 119.601 236.108 119.601 127.843 453.497 186.287 453.497 214.328 366.703 214.155 366.646 233.253 307.866 233.233 307.866 235.976 299.487 240.183 286.537 240.211 286.546 276.347 176.128 319.462 307.866 268.421 307.866 251.456 360.082 336.228 360.082 366.887 453.497 425.331 453.497 316.587 119.601"/><g id="C"><path class="cls-4" d="M676.654,119.6h-162.877l-61.797,60.839v29.621l36.298-18.955c1.347-6.842,10.992-9.376,15.521-4.045l23.926-.681,21.022-18.395h91.02l37.366,31.617v41.677h58.443v-66.109l-58.923-55.569Z"/><path class="cls-4" d="M677.133,373.017l-33.534,32.097h-50.667l.229,3.665-6.675,4.746-9.407-2.958-2.569-5.452h-26.721l-37.366-36.887v-16.729l-6.907-.516c-5.892,6.237-17.213.373-15.349-8.128l-11.323-14.25c-2.993-.143-5.613-1.727-7.17-4.082l-17.694-2.429v74.397l60.839,57.007h160.961l61.797-57.007v-76.169h-58.443v52.695Z"/></g><line class="cls-2" x1="427.995" y1="263.15" x2="442.393" y2="307.859"/><path class="cls-2" d="M428.215,263.079c2.651,3.141,4.374,6.716,5.213,10.658.315,1.955.208,4.045.676,5.951.616,2.9,2.377,5.44,3.754,8.043,1.257,2.662,2.44,5.38,3.283,8.195,1.01,3.787,1.683,7.682,1.472,11.862-.006.215-.308.322-.439.142-3.818-4.901-6.049-10.263-7.257-16.168-1.06-3.792-.66-7.976-2.231-11.618-.732-1.82-2.039-3.456-2.924-5.227-.881-1.774-1.307-3.694-1.678-5.628-.337-1.947-.542-3.938-.308-6.069.017-.209.303-.306.439-.142h0Z"/><line class="cls-2" x1="464.938" y1="279.367" x2="442.393" y2="307.859"/><path class="cls-2" d="M465.046,279.453c-1.109,2.914-2.744,5.497-4.838,7.754-1.081,1.076-2.369,1.986-3.374,3.122-1.01,1.132-1.839,2.406-2.574,3.755-1.449,2.694-3.174,5.192-5.071,7.571-1.981,2.293-4.109,4.47-6.688,6.291-.108.08-.276-.042-.217-.172,1.802-4.343,4.377-8.047,7.536-11.411,1.949-2.31,4.601-4.07,6.313-6.588,1.568-2.598,2.83-5.43,5.141-7.515,1.083-1.073,2.199-2.121,3.555-2.978.109-.073.267.044.217.172h0Z"/><line class="cls-2" x1="427.995" y1="263.15" x2="464.938" y2="279.367"/><path class="cls-2" d="M428.051,263.023c3.412.469,6.628,1.535,9.645,3.123,1.467.84,2.827,1.924,4.332,2.676,1.503.758,3.099,1.305,4.743,1.742,3.28.854,6.44,2.027,9.525,3.394,3.026,1.472,5.977,3.114,8.697,5.282.111.082.029.282-.111.254-5.12-.846-9.815-2.606-14.324-5.009-3.035-1.436-5.715-3.691-8.889-4.844-3.218-.994-6.585-1.636-9.49-3.476-1.465-.844-2.914-1.726-4.24-2.888-.102-.085-.028-.275.111-.254h0Z"/><line class="cls-2" x1="442.393" y1="307.859" x2="483.714" y2="313.53"/><path class="cls-2" d="M442.419,307.676c3.463-.777,7.081-.728,10.515.074,1.689.474,3.33,1.298,5.037,1.645,3.414.778,7.037-.078,10.486.278,3.504.123,6.936.64,10.291,1.706,1.682.525,3.356,1.106,4.993,1.967.155.077.128.336-.05.366-5.255.99-10.556.659-15.707-.58-3.417-.586-6.676-2.386-10.174-2.557-1.737-.126-3.54.226-5.293.227-2.629-.062-5.201-.718-7.672-1.616-.834-.311-1.663-.668-2.474-1.146-.148-.082-.12-.329.05-.366h0Z"/><line class="cls-2" x1="464.938" y1="279.367" x2="483.714" y2="313.53"/><path class="cls-2" d="M465.12,279.267c2.738,2.079,4.746,4.7,6.031,7.806.546,1.553.743,3.299,1.415,4.782.942,2.278,2.834,4.042,4.395,5.925,1.466,1.957,2.876,3.977,4.004,6.14,1.407,2.934,2.536,6.02,2.931,9.51.026.19-.217.33-.364.2-4.009-3.317-6.7-7.306-8.58-11.965-1.454-2.931-1.681-6.452-3.561-9.164-.892-1.363-2.26-2.465-3.278-3.758-1.016-1.297-1.654-2.801-2.247-4.326-.565-1.543-1.02-3.146-1.111-4.95-.014-.185.215-.314.364-.2h0Z"/><line class="cls-2" x1="476.423" y1="238.735" x2="427.995" y2="263.15"/><path class="cls-2" d="M476.527,238.941c-3.24,3.392-7.052,5.909-11.344,7.617-2.153.75-4.505,1.104-6.585,1.997-3.174,1.262-5.814,3.595-8.582,5.567-2.843,1.86-5.749,3.651-8.804,5.125-4.126,1.856-8.41,3.397-13.113,4.108-.217.038-.38-.255-.208-.412,5.063-4.946,10.839-8.388,17.282-10.898,4.12-1.906,8.863-2.433,12.754-4.82,1.955-1.142,3.639-2.822,5.522-4.106,1.886-1.281,3.988-2.136,6.111-2.938,2.142-.771,4.347-1.418,6.759-1.652.214-.026.363.254.208.412h0Z"/><line class="cls-2" x1="455.017" y1="223.074" x2="427.995" y2="263.15"/><path class="cls-2" d="M455.208,223.203c-.895,4.123-2.707,7.779-5.35,10.967-1.375,1.502-3.116,2.757-4.357,4.349-1.947,2.347-2.904,5.371-4.147,8.134-1.364,2.705-2.819,5.384-4.559,7.857-2.418,3.228-5.128,6.258-8.608,8.77-.173.131-.446-.042-.383-.258,1.59-6.173,4.525-11.383,8.515-16.119,2.39-3.27,5.991-5.637,7.947-9.215,1.01-1.748,1.521-3.832,2.398-5.67.882-1.835,2.16-3.405,3.483-4.938,1.355-1.516,2.825-2.953,4.677-4.133.174-.118.431.049.383.258h0Z"/><line class="cls-2" x1="501.772" y1="198.657" x2="455.017" y2="223.074"/><path class="cls-2" d="M501.879,198.862c-3.08,3.378-6.744,5.894-10.904,7.607-2.087.752-4.379,1.111-6.391,2.005-3.073,1.264-5.597,3.593-8.253,5.56-2.733,1.858-5.532,3.647-8.483,5.121-3.989,1.857-8.141,3.402-12.723,4.123-.216.039-.381-.25-.214-.409,4.827-4.93,10.385-8.368,16.63-10.886,3.983-1.907,8.607-2.444,12.354-4.83,1.884-1.141,3.488-2.816,5.298-4.099,1.812-1.279,3.847-2.135,5.903-2.939,2.076-.773,4.216-1.422,6.57-1.663.213-.027.364.248.214.409h0Z"/><line class="cls-2" x1="476.423" y1="238.735" x2="455.017" y2="223.074"/><path class="cls-2" d="M476.286,238.921c-2.529-.006-4.689-.801-6.352-2.547-.716-.893-1.166-2.149-1.978-2.911-.799-.78-1.828-1.245-2.982-1.539-4.625-1.233-8.31-3.921-10.093-8.664-.07-.18.08-.385.272-.373,2.659.109,4.769.968,6.671,2.112,1.841,1.316,3.425,2.905,4.642,4.885.629,1.012,1.384,1.852,2.369,2.377.972.543,2.306.592,3.373,1.005,1.068.416,1.853,1.218,2.601,2.061.729.875,1.375,1.863,1.75,3.222.052.18-.086.368-.272.373h0Z"/><line class="cls-2" x1="464.938" y1="279.367" x2="476.423" y2="238.735"/><path class="cls-2" d="M464.716,279.304c-.569-3.691-.142-7.244,1.24-10.619.765-1.612,1.963-3.102,2.572-4.758.638-1.648.875-3.409.936-5.22.088-3.591.725-7.073,1.715-10.485,1.15-3.332,2.639-6.567,5.022-9.55.128-.168.427-.091.444.126.622,5.62-.32,10.742-2.429,15.768-1.088,3.332-3.659,6.258-4.254,9.767-.348,1.73-.107,3.626-.299,5.4-.195,1.775-.85,3.42-1.559,5.044-.744,1.618-1.622,3.198-2.943,4.653-.134.155-.414.079-.444-.126h0Z"/><line class="cls-2" x1="497.426" y1="272.988" x2="464.938" y2="279.367"/><path class="cls-2" d="M497.452,273.124c-2.469,1.441-5.126,2.291-7.926,2.593-1.389.089-2.828-.082-4.198.102-3.995.693-7.686,2.821-11.984,3.405-2.732.403-5.501.623-8.38.279-.131-.013-.178-.209-.053-.272,3.796-2.05,7.761-3.114,11.957-3.541,2.718-.44,5.615.004,8.288-.748,2.615-.902,5.149-2.183,8.001-2.215,1.386-.1,2.788-.122,4.242.125.128.018.17.206.053.272h0Z"/><line class="cls-2" x1="534.881" y1="280.442" x2="483.714" y2="313.53"/><path class="cls-2" d="M535.031,280.675c-3.138,4.268-7.069,7.577-11.687,9.98-2.326,1.079-4.945,1.704-7.166,2.946-4.53,2.383-7.697,6.828-11.855,9.721-3.982,3.227-8.294,5.897-13.024,7.911-2.377.999-4.788,1.948-7.435,2.53-.251.062-.47-.256-.301-.465,6.437-8.184,15.312-13.818,24.91-17.585,2.414-.942,4.71-2.068,6.734-3.613,2.044-1.515,3.688-3.648,5.626-5.326,1.941-1.676,4.194-2.872,6.479-4.007,2.312-1.101,4.714-2.061,7.417-2.557.249-.052.458.256.301.465h0Z"/><line class="cls-2" x1="501.772" y1="336.256" x2="483.714" y2="313.53"/><path class="cls-2" d="M501.591,336.4c-2.584-.834-4.575-2.352-5.841-4.627-.519-1.132-.686-2.544-1.332-3.576-.629-1.045-1.563-1.848-2.664-2.518-4.385-2.741-7.497-6.618-8.22-12.006-.028-.194.178-.36.361-.287,2.666.972,4.603,2.522,6.264,4.291,1.555,1.917,2.794,4.029,3.574,6.429.404,1.224.975,2.315,1.851,3.164.858.863,2.197,1.344,3.182,2.106.985.765,1.595,1.828,2.157,2.92.537,1.119.964,2.324,1.03,3.816.012.19-.179.342-.361.287h0Z"/><line class="cls-2" x1="476.423" y1="238.735" x2="507.175" y2="260.314"/><path class="cls-2" d="M476.555,238.546c3.339.462,6.241,1.802,8.662,4.007,1.11,1.143,1.962,2.654,3.165,3.664,1.187,1.034,2.612,1.728,4.143,2.272,6.133,2.21,11.385,5.819,14.783,11.635.106.177-.059.422-.266.378-3.414-.585-6.294-1.931-8.972-3.565-2.608-1.8-4.982-3.877-6.998-6.379-1.033-1.254-2.17-2.359-3.546-3.123-1.359-.788-3.07-1.075-4.522-1.731-1.452-.659-2.63-1.709-3.771-2.802-1.123-1.125-2.166-2.364-2.944-3.98-.091-.178.065-.404.265-.378h0Z"/><line class="cls-2" x1="497.426" y1="272.988" x2="507.175" y2="260.314"/><path class="cls-2" d="M497.243,272.847c-.393-1.676-.207-3.283,1.094-4.202.642-.347,1.641-.419,2.155-.864.531-.432.753-1.101.807-1.901.223-3.202,2.095-5.444,5.693-5.707.177-.014.334.111.366.281.55,3.174-.535,5.141-2.976,6.537-.927.439-2.319.688-2.71,1.698-.417.907.124,2.429-.79,3.174-.913.854-1.746,1.233-3.273,1.265-.175-.001-.322-.12-.366-.282h0Z"/><line class="cls-2" x1="534.881" y1="280.442" x2="507.175" y2="260.314"/><path class="cls-2" d="M534.745,280.629c-3.093-.357-5.756-1.57-7.922-3.661-.98-1.079-1.694-2.523-2.769-3.472-1.062-.966-2.353-1.617-3.769-2.096-5.653-1.982-10.395-5.366-13.246-10.9-.095-.179.069-.411.272-.374,3.18.478,5.813,1.708,8.24,3.224,2.357,1.682,4.471,3.637,6.22,6.004.893,1.199,1.911,2.225,3.158,2.936,1.234.729,2.828.962,4.157,1.561,1.329.601,2.378,1.589,3.388,2.619.992,1.062,1.903,2.236,2.542,3.784.079.18-.075.394-.271.374h0Z"/><line class="cls-2" x1="497.426" y1="272.988" x2="476.423" y2="238.735"/><path class="cls-2" d="M497.308,273.06c-2.527-2.32-4.553-5.019-6.118-8.032-.722-1.521-1.217-3.181-2.021-4.652-.799-1.474-1.793-2.828-2.891-4.119-2.199-2.561-4.119-5.315-5.865-8.186-1.638-2.923-3.118-5.944-4.108-9.264-.044-.131.137-.249.236-.145,3.711,3.597,6.553,7.704,8.875,12.233,1.666,2.899,2.574,6.268,4.515,9.014,2.069,2.64,4.461,5.077,5.789,8.233.719,1.523,1.402,3.068,1.824,4.773.035.128-.134.241-.236.145h0Z"/><line class="cls-2" x1="522.949" y1="233.816" x2="476.423" y2="238.735"/><path class="cls-2" d="M522.973,234.045c-3.601,1.95-7.438,2.903-11.453,2.915-1.97-.093-3.987-.626-5.94-.56-2.954.008-5.788,1.211-8.607,2.025-2.852.684-5.743,1.283-8.659,1.532-3.898.211-7.834.071-11.867-.993-.209-.05-.252-.367-.049-.459,5.556-2.731,11.238-3.815,17.242-3.785,3.913-.26,7.912.99,11.783.2,1.924-.343,3.785-1.286,5.692-1.789,1.908-.498,3.868-.522,5.829-.488,1.967.069,3.95.277,5.98.944.2.06.237.359.048.459h0Z"/><line class="cls-2" x1="534.881" y1="280.442" x2="522.949" y2="233.816"/><path class="cls-2" d="M534.612,280.511c-2.754-3.278-4.407-7.016-4.953-11.152-.151-2.031.221-4.197-.118-6.18-.313-1.99-1.081-3.863-2.095-5.674-2.955-5.363-4.891-11.185-5.126-17.318-.083-2.105-.045-4.184.361-6.302.034-.167.196-.274.362-.241,1.548,1.534,2.516,3.57,3.519,5.458,1.839,3.655,2.929,7.505,3.399,11.55.825,3.909-.135,8.288,1.312,12.084.654,1.902,2.021,3.623,2.864,5.477.84,1.857,1.126,3.856,1.343,5.866.177,2.025.191,4.091-.33,6.295-.051.238-.379.326-.537.137h0Z"/><line class="cls-2" x1="564.267" y1="225.909" x2="534.881" y2="280.442"/><path class="cls-2" d="M564.511,226.04c-.734,5.327-2.627,10.195-5.556,14.598-1.539,2.103-3.553,3.949-4.921,6.144-1.399,2.178-2.358,4.593-3.125,7.112-1.485,5.019-3.587,9.757-6.077,14.317-2.713,4.514-5.756,8.741-9.708,12.361-.191.177-.538.003-.488-.263,1.78-10.426,6.925-19.781,13.601-27.855,1.682-2.026,3.172-4.155,4.222-6.521,1.082-2.349,1.516-5.047,2.426-7.489.914-2.441,2.332-4.611,3.808-6.744,1.516-2.115,3.179-4.151,5.329-5.925.193-.167.526.003.488.263h0Z"/><line class="cls-2" x1="512.846" y1="322.26" x2="548.963" y2="310.695"/><path class="cls-2" d="M512.776,322.04c2.414-2.391,5.265-3.901,8.512-4.506,1.596-.199,3.329.032,4.875-.321,1.555-.325,2.983-1.046,4.356-1.94,2.696-1.798,5.61-3.084,8.663-4.036,3.071-.773,6.249-1.21,9.711-.763.206.021.301.302.141.44-3.826,3.453-8.093,5.338-12.949,6.195-3.036.824-6.553.189-9.468,1.522-1.463.611-2.74,1.805-4.154,2.57-1.417.763-2.979,1.071-4.554,1.324-1.589.219-3.22.306-4.993-.047-.198-.034-.283-.297-.141-.44h0Z"/><line class="cls-2" x1="501.772" y1="336.256" x2="512.846" y2="322.26"/><path class="cls-2" d="M501.627,336.141c-.08-1.773.421-3.272,1.705-4.34.65-.434,1.576-.649,2.125-1.163.565-.501.869-1.209,1.059-2.007.346-1.554,1.042-2.904,2.015-4.096,1.048-1.067,2.318-1.959,4.17-2.39.127-.03.254.049.284.177.039,1.905-.562,3.391-1.36,4.661-.936,1.221-2.09,2.208-3.522,2.903-.733.368-1.352.827-1.71,1.492-.374.652-.37,1.604-.644,2.336-.277.729-.856,1.219-1.464,1.686-.634.446-1.356.823-2.367.972-.144.022-.277-.084-.29-.229h0Z"/><line class="cls-2" x1="536.582" y1="338.856" x2="501.772" y2="336.256"/><path class="cls-2" d="M536.561,339.133c-2.846,1.596-5.813,2.118-8.854,1.378-1.424-.464-2.808-1.468-4.246-1.738-1.437-.297-2.908-.128-4.398.296-5.8,1.671-12.339,1.111-17.313-2.537-.186-.139-.164-.443.041-.553,2.75-1.466,5.864-2.013,8.903-2.027,2.185.091,4.357.618,6.472,1.217,2.064.766,4.197,2.018,6.427,1.82,1.462-.054,2.98-.841,4.457-1.088,1.479-.249,2.916.085,4.34.478,1.426.439,2.839,1.043,4.211,2.2.177.144.155.436-.041.553h0Z"/><line class="cls-2" x1="548.963" y1="310.695" x2="536.582" y2="338.856"/><path class="cls-2" d="M549.174,310.788c.415,2.817-.069,5.415-1.544,7.723-.788,1.054-1.989,1.926-2.629,3.045-.661,1.11-.964,2.377-1.073,3.729-.498,5.419-2.582,10.244-7.136,13.665-.157.121-.407.014-.423-.186-.325-2.943.201-5.513,1.049-7.94,1.028-2.399,2.375-4.614,4.196-6.557.923-.994,1.651-2.074,2.023-3.311.392-1.228.223-2.702.466-3.995.247-1.294.932-2.395,1.665-3.469.769-1.062,1.665-2.069,2.982-2.889.162-.105.391-.004.423.186h0Z"/><line class="cls-2" x1="534.881" y1="280.442" x2="512.846" y2="322.26"/><path class="cls-2" d="M535.085,280.55c-.403,4.114-1.766,7.867-4.009,11.245-1.183,1.603-2.758,2.999-3.799,4.677-1.651,2.485-2.244,5.536-3.151,8.357-1.033,2.777-2.159,5.539-3.589,8.126-2.013,3.392-4.339,6.619-7.486,9.413-.157.147-.446.005-.408-.215.851-6.189,3.142-11.567,6.537-16.591,1.981-3.431,5.264-6.093,6.78-9.784.795-1.807,1.057-3.896,1.709-5.778.658-1.881,1.739-3.54,2.867-5.168,1.162-1.614,2.448-3.163,4.141-4.497.161-.134.431.003.408.215h0Z"/><line class="cls-2" x1="548.963" y1="310.695" x2="534.881" y2="280.442"/><path class="cls-2" d="M548.754,310.792c-2.495-1.747-4.208-4.031-5.057-6.848-.317-1.386-.225-2.962-.689-4.28-.444-1.327-1.241-2.49-2.231-3.562-1.958-2.102-3.441-4.486-4.61-7.056-.992-2.606-1.664-5.36-1.495-8.506.006-.202.26-.323.419-.195,3.656,2.847,5.826,6.309,7.05,10.521,1.039,2.563.686,5.787,2.218,8.17.709,1.203,1.975,2.148,2.831,3.283.855,1.137,1.277,2.477,1.645,3.835.337,1.377.547,2.813.34,4.443-.021.195-.257.305-.419.195h0Z"/><line class="cls-2" x1="501.772" y1="198.657" x2="476.423" y2="238.735"/><path class="cls-2" d="M502.006,198.805c-.463,4.201-2.015,7.919-4.618,11.107-1.358,1.479-3.173,2.669-4.366,4.252-1.216,1.569-2.037,3.387-2.642,5.343-2.428,7.7-6.911,14.857-13.722,19.376-1.082.47.116-2.979.152-3.41.779-2.926,1.987-5.733,3.45-8.339,2.111-3.392,4.567-6.523,7.556-9.249,1.507-1.384,2.799-2.905,3.695-4.677.919-1.757,1.216-3.907,1.971-5.767.758-1.86,2.001-3.415,3.298-4.928,1.336-1.493,2.813-2.897,4.758-4.004.207-.125.495.053.468.296h0Z"/><line class="cls-2" x1="522.949" y1="233.816" x2="501.772" y2="198.657"/><path class="cls-2" d="M522.751,233.935c-3.027-2.024-5.28-4.679-6.746-7.915-.628-1.618-.869-3.469-1.636-5.004-.741-1.55-1.838-2.885-3.092-4.127-2.508-2.435-4.562-5.197-6.324-8.169-1.593-3.033-2.885-6.248-3.38-9.943-.033-.208.225-.37.396-.238,4.447,3.263,7.464,7.325,9.613,12.177,1.635,2.989,1.961,6.781,4.062,9.531.999,1.395,2.522,2.474,3.659,3.785,1.136,1.314,1.863,2.875,2.538,4.461.646,1.607,1.173,3.286,1.305,5.203.019.203-.225.353-.396.238h0Z"/><line class="cls-2" x1="551.799" y1="197.233" x2="501.772" y2="198.657"/><path class="cls-2" d="M551.806,197.51c-3.968,1.975-8.139,2.762-12.449,2.389-2.095-.298-4.205-1.136-6.293-1.239-2.09-.13-4.167.208-6.236.801-6.125,1.71-12.466,2.321-18.741,1.206-2.15-.379-4.249-.871-6.308-1.733-.155-.067-.227-.246-.16-.401,1.912-1.19,4.205-1.674,6.343-2.242,4.131-.994,8.287-1.213,12.495-.785,4.156.052,8.375,1.948,12.556,1.368,2.08-.222,4.139-1.179,6.213-1.595,2.076-.413,4.169-.253,6.257-.025,2.094.272,4.193.71,6.307,1.702.224.099.238.444.016.554h0Z"/><line class="cls-2" x1="522.949" y1="233.816" x2="551.799" y2="197.233"/><path class="cls-2" d="M522.767,233.673c1.11-3.926,3.096-7.325,5.882-10.195,1.437-1.339,3.222-2.403,4.534-3.841,2.049-2.11,3.161-4.97,4.539-7.546,1.494-2.51,3.077-4.988,4.928-7.239,2.561-2.925,5.399-5.631,8.967-7.762.182-.115.438.076.362.286-1.91,5.864-5.087,10.669-9.286,14.927-2.537,2.97-6.214,4.945-8.341,8.256-1.093,1.61-1.712,3.594-2.679,5.304-.972,1.708-2.318,3.12-3.707,4.494-1.419,1.353-2.947,2.621-4.837,3.602-.183.101-.422-.081-.363-.286h0Z"/><line class="cls-2" x1="507.175" y1="260.314" x2="522.949" y2="233.816"/><path class="cls-2" d="M507.056,260.243c.479-2.634,1.52-5.019,3.07-7.145.812-1.012,1.852-1.888,2.581-2.95.74-1.055,1.268-2.236,1.704-3.472.844-2.465,1.991-4.777,3.324-6.993,1.427-2.141,3.015-4.187,5.096-5.939.098-.087.272.008.238.142-.862,3.949-2.568,7.367-4.909,10.536-1.39,2.154-3.556,3.853-4.685,6.183-.977,2.385-1.616,4.964-3.401,6.948-.803,1.018-1.674,1.995-2.78,2.831-.1.08-.263-.012-.238-.142h0Z"/><line class="cls-2" x1="552.867" y1="247.065" x2="522.949" y2="233.816"/><path class="cls-2" d="M552.811,247.192c-2.82-.223-5.454-1.037-7.892-2.382-1.174-.716-2.24-1.676-3.453-2.304-1.208-.64-2.515-1.054-3.866-1.371-2.693-.607-5.269-1.532-7.772-2.653-2.44-1.224-4.805-2.619-6.937-4.539-.101-.086-.026-.273.112-.253,4.24.478,8.055,1.86,11.693,3.898,2.45,1.185,4.538,3.197,7.13,4.101,2.629.748,5.411,1.138,7.735,2.735,1.178.706,2.324,1.486,3.359,2.516.094.088.021.265-.112.253h0Z"/><line class="cls-2" x1="564.267" y1="225.909" x2="522.949" y2="233.816"/><path class="cls-2" d="M564.302,226.09c-3.063,1.849-6.536,2.965-10.075,3.309-1.767.094-3.6-.16-5.343.06-3.513.36-6.702,2.335-10.113,3.106-3.389,1.009-6.836,1.622-10.384,1.691-1.776.043-3.563.03-5.403-.259-.172-.023-.23-.277-.069-.363,4.707-2.628,9.88-4.017,15.201-4.498,3.456-.543,7.148.115,10.546-.847,1.701-.439,3.311-1.351,4.987-1.916,2.533-.786,5.201-.991,7.852-.935.897.026,1.804.099,2.732.29.167.03.219.273.07.363h0Z"/><line class="cls-2" x1="551.799" y1="197.233" x2="564.267" y2="225.909"/><path class="cls-2" d="M552.01,197.141c2.369,1.647,3.963,3.807,4.672,6.493.246,1.313.08,2.807.475,4.055.375,1.258,1.107,2.36,2.035,3.377,3.672,4.123,5.835,9.004,5.287,14.75-.017.199-.266.31-.423.184-2.398-1.799-3.944-3.968-5.167-6.278-1.08-2.422-1.808-4.953-2.015-7.648-.112-1.372-.418-2.66-1.082-3.792-.644-1.141-1.849-2.037-2.642-3.114-.791-1.079-1.143-2.349-1.441-3.635-.267-1.305-.405-2.665-.122-4.209.032-.19.263-.291.424-.184h0Z"/><line class="cls-2" x1="597.898" y1="265.233" x2="554.997" y2="243.112"/><path class="cls-2" d="M597.813,265.398c-4.031-.671-7.894-2.179-11.347-4.325-1.678-1.135-3.193-2.584-4.93-3.605-2.579-1.601-5.599-2.355-8.45-3.36-2.81-1.111-5.607-2.289-8.269-3.712-3.495-1.999-6.876-4.219-9.906-7.12-.136-.121-.012-.372.169-.328,6.125,1.236,11.612,3.648,16.803,6.908,3.529,1.962,6.466,4.968,10.198,6.553,1.838.823,3.898,1.217,5.795,1.925,2.821,1.123,5.39,2.782,7.789,4.643.805.634,1.588,1.309,2.315,2.092.122.125.009.359-.169.328h0Z"/><line class="cls-2" x1="593.757" y1="241.57" x2="564.267" y2="225.909"/><path class="cls-2" d="M593.649,241.774c-3.045.11-5.79-.682-8.168-2.418-1.089-.915-1.967-2.229-3.132-3.001-1.155-.792-2.493-1.239-3.93-1.499-5.75-1.106-10.794-3.732-14.26-8.743-.117-.165.012-.415.216-.408,3.153-.004,5.87.813,8.421,1.941,2.507,1.303,4.811,2.911,6.809,4.977,1.02,1.046,2.14,1.903,3.443,2.416,1.292.533,2.872.525,4.24.915,1.368.393,2.513,1.208,3.626,2.07,1.099.896,2.133,1.915,2.951,3.342.101.168-.021.398-.217.408h0Z"/><line class="cls-2" x1="595.841" y1="211.395" x2="551.799" y2="197.233"/><path class="cls-2" d="M595.757,211.659c-4.088.63-7.985.091-11.633-1.604-1.726-.93-3.286-2.375-5.072-3.12-1.777-.77-3.697-1.095-5.696-1.177-7.879-.362-15.753-2.863-21.642-8.261-.711-.919,2.847-.653,3.271-.728,2.957,0,5.909.445,8.73,1.187,3.722,1.166,7.275,2.732,10.569,4.913,1.671,1.098,3.421,1.954,5.314,2.364,1.885.435,3.995.171,5.939.421,1.945.254,3.715,1.054,5.459,1.916,1.734.905,3.416,1.969,4.93,3.561.17.171.071.49-.169.528h0Z"/><line class="cls-2" x1="534.881" y1="280.442" x2="596.593" y2="265.233"/><path class="cls-2" d="M534.814,280.173c4.574-3.066,9.584-4.96,14.941-5.777,2.657-.287,5.443-.049,8.053-.525,5.271-.826,9.929-4.047,15.015-5.477,5.03-1.803,10.189-2.972,15.531-3.385,2.679-.195,5.373-.332,8.171-.044.26.021.366.397.133.538-6.899,4.319-14.594,6.83-22.582,7.977-5.169,1.097-10.789.409-15.841,2.127-2.532.792-4.889,2.297-7.375,3.277-2.487.977-5.113,1.399-7.75,1.752-2.651.312-5.341.462-8.164.075-.255-.029-.354-.393-.133-.538h0Z"/><line class="cls-2" x1="582.643" y1="298.691" x2="534.881" y2="280.442"/><path class="cls-2" d="M582.545,298.95c-4.51.272-8.747-.635-12.667-2.662-1.863-1.094-3.533-2.693-5.465-3.605-1.922-.937-4.012-1.437-6.193-1.699-6.44-.818-12.657-2.732-18.151-6.215-1.881-1.189-3.675-2.465-5.288-4.068-.118-.119-.117-.312.002-.43,2.265-.36,4.614.098,6.849.407,4.28.698,8.288,2.121,12.094,4.161,3.902,1.674,7.158,5.075,11.325,6.174,2.048.609,4.358.53,6.476.957,2.117.431,4.032,1.397,5.916,2.424,1.872,1.07,3.685,2.295,5.299,4.038.171.176.052.504-.198.518h0Z"/><line class="cls-2" x1="596.593" y1="265.233" x2="582.643" y2="298.691"/><path class="cls-2" d="M596.806,265.322c.308,3.254-.329,6.277-1.923,9.017-.856,1.28-2.128,2.386-2.834,3.728-.734,1.331-1.083,2.821-1.265,4.382-.752,6.264-3.068,11.967-7.928,16.331-.151.139-.421.031-.426-.178-.206-3.358.447-6.359,1.424-9.225,1.155-2.834,2.631-5.498,4.597-7.902.981-1.227,1.794-2.525,2.223-3.982.456-1.446.347-3.128.654-4.637.309-1.509,1.06-2.835,1.861-4.133.836-1.288,1.8-2.522,3.19-3.579.156-.124.406-.021.426.178h0Z"/><line class="cls-2" x1="593.757" y1="241.57" x2="596.593" y2="265.233"/><path class="cls-2" d="M593.986,241.543c1.671,1.623,2.565,3.513,2.392,5.714-.177,1.021-.802,2.096-.819,3.098-.039,1.005.31,1.963.87,2.896,2.199,3.739,2.687,7.897.392,11.954-.092.166-.33.194-.459.055-1.708-1.795-2.491-3.702-2.929-5.65-.239-1.476-.114-3.015.073-4.509.326-1.474,1.056-3.099.574-4.569-.252-.97-1.114-1.867-1.527-2.817-.415-.953-.346-1.964-.228-2.973.156-1.019.449-2.054,1.201-3.144.103-.152.323-.178.458-.055h0Z"/><line class="cls-2" x1="582.643" y1="298.691" x2="548.963" y2="310.695"/><path class="cls-2" d="M582.705,298.865c-2.233,2.098-5.007,3.577-7.965,4.278-1.484.274-3.086.215-4.527.61-2.924.717-5.277,2.979-8.034,4.084-2.702,1.34-5.519,2.294-8.518,2.726-1.501.226-3.021.398-4.636.304-.169-.006-.256-.236-.124-.348,3.492-3.031,7.652-4.949,12.106-5.972,2.834-.888,6.089-.624,8.806-1.918,1.366-.605,2.57-1.664,3.893-2.39,2.012-1.032,4.252-1.508,6.502-1.726.767-.067,1.55-.09,2.373.002.164.014.246.233.124.348h0Z"/><line class="cls-2" x1="569.186" y1="336.256" x2="548.963" y2="310.695"/><path class="cls-2" d="M569.041,336.371c-2.596-1.282-4.638-3.151-6.119-5.549-.655-1.214-1.031-2.647-1.787-3.781-.739-1.147-1.74-2.087-2.854-2.937-2.221-1.665-4.124-3.627-5.81-5.794-1.56-2.229-2.898-4.634-3.654-7.5-.047-.162.142-.316.29-.229,3.84,2.115,6.629,5.007,8.808,8.617,1.588,2.191,2.219,5.151,4.154,7.104.93.996,2.238,1.693,3.269,2.609,1.027.919,1.752,2.077,2.448,3.259.669,1.202,1.252,2.473,1.544,3.973.036.159-.142.302-.29.229h0Z"/><line class="cls-2" x1="562.183" y1="357.395" x2="536.582" y2="338.856"/><path class="cls-2" d="M562.048,357.582c-2.902-.228-5.396-1.295-7.395-3.262-.892-1.013-1.52-2.392-2.508-3.274-.974-.9-2.177-1.485-3.504-1.897-5.305-1.714-9.696-4.846-12.195-10.106-.088-.179.071-.403.271-.374,3.003.345,5.46,1.442,7.711,2.825,2.185,1.551,4.123,3.376,5.695,5.608.806,1.133,1.736,2.093,2.896,2.738,1.146.663,2.651.829,3.893,1.361,1.241.535,2.202,1.457,3.126,2.421.905.996,1.728,2.104,2.281,3.587.071.18-.077.386-.271.374h0Z"/><line class="cls-2" x1="569.186" y1="336.256" x2="581.262" y2="356.157"/><path class="cls-2" d="M569.344,336.16c1.97.924,3.398,2.34,4.178,4.272.298.954.294,2.091.702,2.978.391.898,1.065,1.623,1.865,2.272,3.208,2.626,5.296,6.021,5.331,10.379,0,.12-.098.216-.217.216-2.067-.964-3.487-2.501-4.647-4.072-1.047-1.681-1.813-3.489-2.197-5.474-.207-1.009-.539-1.942-1.154-2.703-.599-.771-1.609-1.293-2.317-1.998-.704-.707-1.079-1.614-1.422-2.541-.314-.944-.534-1.945-.438-3.138.01-.152.177-.253.316-.192h0Z"/><line class="cls-2" x1="562.183" y1="357.395" x2="581.262" y2="356.157"/><path class="cls-2" d="M562.172,357.211c1.372-1.267,2.931-1.892,4.682-1.663.811.188,1.644.729,2.446.788.804.08,1.585-.172,2.358-.569,1.494-.794,3.068-1.186,4.708-1.269,1.6.057,3.219.395,4.885,1.475.107.069.137.212.068.318-1.487,1.323-3.114,1.876-4.698,2.144-1.636.129-3.248-.056-4.832-.65-.817-.294-1.625-.443-2.412-.26-.788.163-1.544.807-2.323,1.098-.78.286-1.584.188-2.392.053-.809-.169-1.625-.448-2.466-1.096-.117-.089-.129-.266-.024-.369h0Z"/><line class="cls-2" x1="569.186" y1="336.256" x2="562.183" y2="357.395"/><path class="cls-2" d="M569.361,336.314c.596,2.014.478,3.94-.464,5.711-.519.805-1.375,1.499-1.772,2.345-.417.839-.518,1.783-.481,2.773.096,1.939-.22,3.794-.838,5.587-.736,1.711-1.739,3.334-3.448,4.723-.094.076-.232.062-.308-.032-.622-2.12-.41-4.111.011-5.931.575-1.808,1.429-3.484,2.664-4.983.621-.772,1.103-1.589,1.27-2.512.187-.916-.085-1.983-.021-2.94.068-.955.503-1.788.973-2.61.501-.811,1.108-1.588,2.065-2.248.123-.088.304-.027.351.116h0Z"/><line class="cls-2" x1="584.271" y1="404.279" x2="581.262" y2="356.157"/><path class="cls-2" d="M583.948,404.299c-2.377-3.678-3.441-7.658-3.121-11.882.29-2.031,1.211-4.101,1.275-6.118.095-2.019-.355-4.004-1.102-5.97-2.137-5.732-3.05-11.937-1.911-17.996.387-2.11.91-4.153,1.85-6.154.089-.184.311-.262.495-.173,1.351,1.793,2.052,3.945,2.753,6.008,1.886,5.87,1.752,12.141.346,18.095-.497,2.044-.695,4.069-.35,6.061.315,1.993,1.485,3.933,2.026,5.912.538,1.982.407,4.005.198,6.026-.263,2.029-.71,4.07-1.814,6.152-.124.246-.492.27-.646.04h0Z"/><line class="cls-2" x1="562.183" y1="357.395" x2="584.271" y2="404.279"/><path class="cls-2" d="M562.434,357.277c3.467,2.982,5.916,6.626,7.362,10.854.597,2.106.706,4.442,1.479,6.465.749,2.034,1.921,3.869,3.325,5.595,2.79,3.408,4.996,7.151,6.827,11.106,1.657,4.082,2.912,8.403,3.096,12.864.012.251-.314.411-.501.236-4.894-4.495-8.344-10.318-10.401-16.583-1.678-3.964-1.694-8.724-3.961-12.456-1.067-1.884-2.8-3.455-4.043-5.256-1.241-1.804-1.964-3.853-2.623-5.926-.621-2.095-1.091-4.26-1.06-6.662-.003-.246.312-.401.501-.236h0Z"/><line class="cls-3" x1="581.262" y1="356.157" x2="612.368" y2="344.527"/><line class="cls-2" x1="624.509" y1="317.698" x2="612.368" y2="344.527"/><path class="cls-2" d="M624.803,317.831c.925,2.759.806,5.524-.873,7.686-.886.946-2.343,1.633-3.027,2.671-.703,1.029-.916,2.279-.853,3.655.358,5.322-2.374,10.622-7.388,12.818-.223.095-.481-.009-.576-.232-1.464-4.575-.014-9.334,3.223-12.712,1.344-1.302,3.305-2.497,3.698-4.387.432-1.79-.582-4.115.599-5.79,1.12-1.818,2.315-3.06,4.607-3.976.236-.089.5.03.589.267h0Z"/><line class="cls-2" x1="593.757" y1="327.212" x2="569.186" y2="336.256"/><path class="cls-2" d="M593.837,327.429c-1.378,2.091-3.207,3.443-5.557,3.852-1.127.098-2.409-.228-3.48.022-1.078.229-2.022.823-2.892,1.618-3.533,3.151-7.76,4.711-12.643,3.552-.188-.043-.275-.279-.16-.433,1.536-2.144,3.393-3.417,5.371-4.358,2.09-.796,4.263-1.225,6.558-1.133,1.177.041,2.281-.118,3.251-.643.977-.504,1.743-1.583,2.664-2.239.924-.655,2.014-.86,3.116-1.011,1.119-.118,2.286-.105,3.613.34.177.057.257.275.159.433h0Z"/><line class="cls-2" x1="581.262" y1="356.157" x2="593.757" y2="327.212"/><path class="cls-2" d="M581.05,356.066c-.411-2.876.085-5.536,1.568-7.908.794-1.088,2.001-1.998,2.646-3.15.666-1.143.973-2.442,1.085-3.824.513-5.538,2.612-10.493,7.196-14.063.156-.124.409-.018.424.183.319,3-.214,5.631-1.072,8.122-1.037,2.464-2.393,4.746-4.227,6.76-.929,1.03-1.663,2.144-2.039,3.412-.396,1.26-.23,2.762-.478,4.086-.251,1.324-.941,2.46-1.679,3.568-.774,1.097-1.676,2.138-3.001,2.997-.16.108-.393.008-.424-.183h0Z"/><line class="cls-3" x1="582.643" y1="298.691" x2="569.186" y2="336.256"/><line class="cls-2" x1="593.757" y1="327.212" x2="580.184" y2="305.555"/><path class="cls-2" d="M593.562,327.335c-2.297-.875-3.972-2.339-4.829-4.514-.314-1.06-.245-2.36-.696-3.334-.432-.986-1.194-1.765-2.136-2.431-3.757-2.721-6.095-6.454-5.911-11.377.006-.191.216-.324.391-.245,2.387,1.018,3.986,2.529,5.287,4.227,1.182,1.838,2.02,3.833,2.375,6.052.188,1.139.557,2.164,1.256,2.983.681.83,1.88,1.335,2.697,2.08.817.747,1.228,1.75,1.589,2.775.332,1.049.545,2.172.369,3.539-.022.185-.216.306-.392.245h0Z"/><line class="cls-2" x1="582.643" y1="298.691" x2="624.509" y2="317.698"/><path class="cls-2" d="M582.758,298.439c4.111-.166,7.898.806,11.307,2.899,1.597,1.117,2.97,2.726,4.647,3.666,1.667.964,3.526,1.503,5.491,1.808,7.741,1.244,15.236,4.615,20.42,10.632.598.992-2.888.329-3.317.355-2.921-.333-5.786-1.105-8.487-2.16-3.542-1.576-6.87-3.529-9.87-6.065-1.523-1.278-3.153-2.324-4.976-2.943-1.812-.644-3.927-.618-5.819-1.085-1.892-.471-3.548-1.463-5.17-2.515-1.607-1.093-3.146-2.339-4.456-4.088-.149-.189-.014-.494.229-.505h0Z"/><line class="cls-2" x1="593.757" y1="327.212" x2="624.509" y2="317.698"/><path class="cls-2" d="M593.689,326.991c1.972-2.202,4.37-3.566,7.187-3.998,1.369-.112,2.872.206,4.193-.061,1.328-.246,2.541-.864,3.69-1.685,4.648-3.241,9.879-4.902,15.681-3.77.198.036.282.3.137.441-2.124,2.209-4.524,3.53-7.027,4.514-2.598.83-5.266,1.299-8.043,1.231-1.413-.029-2.763.146-3.997.693-1.241.526-2.302,1.637-3.495,2.318-1.196.679-2.533.901-3.881,1.067-1.363.133-2.767.133-4.307-.308-.188-.05-.264-.294-.137-.441h0Z"/><line class="cls-2" x1="618.533" y1="294.198" x2="624.509" y2="317.698"/><path class="cls-2" d="M618.757,294.141c1.879,1.428,3.016,3.222,3.136,5.457-.039,1.053-.515,2.216-.398,3.229.096,1.018.57,1.94,1.25,2.809,2.68,3.491,3.722,7.614,1.986,12.004-.068.177-.303.237-.447.114-1.935-1.593-2.966-3.415-3.662-5.324-.433-1.458-.517-3.025-.53-4.556.126-1.53.633-3.26-.041-4.68-.38-.946-1.354-1.74-1.892-2.646-.539-.907-.606-1.936-.624-2.969.019-1.047.172-2.129.772-3.324.081-.165.297-.22.448-.114h0Z"/><line class="cls-2" x1="645.509" y1="295.952" x2="624.509" y2="317.698"/><path class="cls-2" d="M645.708,296.145c-.332,2.895-1.523,5.251-3.787,6.849-1.132.658-2.653.94-3.645,1.734-1.011.774-1.686,1.874-2.177,3.151-1.856,4.976-6.028,9.088-11.392,10.011-.222.036-.427-.161-.398-.385.37-2.728,1.643-5.222,3.319-7.301,1.264-1.413,2.858-2.538,4.464-3.569,1.694-.888,3.826-1.514,4.898-3.149.758-1.019.987-2.549,1.606-3.703.619-1.157,1.659-1.908,2.735-2.612,1.113-.676,2.346-1.236,3.978-1.412.22-.026.417.163.398.385h0Z"/><line class="cls-2" x1="630.623" y1="248.573" x2="645.509" y2="295.952"/><path class="cls-2" d="M630.888,248.49c2.971,3.249,4.855,7.017,5.662,11.235.28,2.081.043,4.324.509,6.347.439,2.031,1.325,3.922,2.455,5.736,2.247,3.581,3.872,7.416,5.097,11.412,1.037,4.1,1.636,8.385,1.163,12.649-.32,1.173-2.25-2.145-2.546-2.453-2.953-4.37-4.907-9.268-5.798-14.446-1.073-3.982-.388-8.528-2.076-12.362-.775-1.925-2.252-3.63-3.212-5.498-.959-1.87-1.37-3.912-1.715-5.968-.304-2.073-.449-4.197-.066-6.486.035-.242.362-.35.529-.166h0Z"/><line class="cls-2" x1="596.593" y1="265.233" x2="630.623" y2="248.573"/><path class="cls-2" d="M596.471,264.985c1.873-2.944,4.407-4.984,7.614-5.992,1.575-.374,3.387-.261,4.877-.81,1.501-.524,2.796-1.469,3.979-2.642,3.443-3.375,7.682-5.957,12.466-6.852,1.674-.322,3.334-.513,5.095-.365.179.017.31.175.293.354-.872,1.57-2.179,2.778-3.462,3.944-3.017,2.744-6.724,4.241-10.617,5.242-2.342.463-4.978.545-6.968,1.924-1.346.84-2.37,2.341-3.63,3.355-1.265,1.013-2.781,1.511-4.321,1.945-1.563.397-3.201.644-5.081.393-.23-.026-.364-.299-.244-.498h0Z"/><line class="cls-2" x1="618.533" y1="294.198" x2="596.593" y2="265.233"/><path class="cls-2" d="M618.348,294.338c-2.97-1.378-5.266-3.456-6.836-6.218-.677-1.387-.994-3.045-1.801-4.334-.783-1.306-1.897-2.362-3.157-3.307-5.042-3.815-8.813-8.697-10.146-15.106-.045-.201.185-.38.368-.279,3.01,1.519,5.279,3.599,7.267,5.892,1.871,2.431,3.435,5.052,4.527,7.967.569,1.468,1.283,2.827,2.329,3.934,1.022,1.125,2.532,1.88,3.684,2.908,1.15,1.03,1.92,2.349,2.641,3.698.694,1.373,1.278,2.831,1.493,4.567.029.197-.186.361-.368.279h0Z"/><line class="cls-2" x1="582.643" y1="298.691" x2="618.533" y2="294.198"/><path class="cls-2" d="M582.615,298.462c2.665-1.881,5.598-2.829,8.762-2.805,1.532.108,3.121.663,4.633.61,1.516-.023,2.98-.46,4.421-1.077,2.835-1.251,5.79-1.961,8.823-2.316,3.016-.176,6.075-.002,9.25,1.094.196.062.236.35.057.458-4.178,2.658-8.496,3.701-13.216,3.621-2.99.233-6.185-1.059-9.151-.303-1.479.322-2.881,1.251-4.339,1.734-1.46.48-2.981.486-4.502.435-1.529-.087-3.076-.311-4.681-.993-.185-.074-.219-.342-.057-.458h0Z"/><line class="cls-2" x1="630.623" y1="248.573" x2="618.533" y2="294.198"/><path class="cls-2" d="M630.846,248.632c.53,4.094.044,8.052-1.384,11.84-.794,1.824-2.015,3.535-2.653,5.401-1.051,2.788-.945,5.89-1.196,8.839-.383,2.934-.861,5.873-1.675,8.712-1.201,3.751-2.743,7.411-5.183,10.834-.121.179-.433.105-.446-.118-.558-6.215.467-11.96,2.648-17.609,1.161-3.783,3.763-7.106,4.412-11.038.37-1.937.156-4.028.37-6.006.219-1.978.9-3.834,1.635-5.67.771-1.83,1.675-3.625,3.026-5.302.127-.167.421-.094.446.118h0Z"/><line class="cls-2" x1="645.509" y1="295.952" x2="618.533" y2="294.198"/><path class="cls-2" d="M645.494,296.182c-2.181,1.354-4.474,1.835-6.854,1.253-1.105-.37-2.18-1.19-3.295-1.398-1.114-.231-2.253-.072-3.406.299-4.648,1.435-9.283,1.144-13.421-1.908-.157-.114-.141-.369.03-.461,2.344-1.333,4.628-1.738,6.889-1.792,2.302.124,4.533.617,6.666,1.638,1.095.517,2.204.822,3.338.738,1.133-.062,2.305-.736,3.449-.959,1.145-.221,2.26.036,3.364.347,1.106.348,2.203.836,3.27,1.783.142.123.127.358-.03.461h0Z"/><line class="cls-2" x1="630.623" y1="248.573" x2="593.757" y2="241.57"/><path class="cls-2" d="M630.572,248.845c-3.233,1.238-6.454,1.359-9.596.248-1.47-.643-2.838-1.816-4.344-2.268-1.501-.478-3.089-.496-4.725-.263-6.384.912-13.218-.426-18.202-4.719-.177-.155-.119-.465.104-.544,3.127-1.117,6.491-1.257,9.717-.884,2.322.363,4.58,1.165,6.776,2.03,2.129,1.029,4.266,2.54,6.663,2.625,1.566.132,3.27-.458,4.873-.517,1.604-.056,3.102.453,4.58,1.026,1.475.617,2.917,1.398,4.257,2.723.168.16.112.458-.103.544h0Z"/><line class="cls-2" x1="534.881" y1="280.442" x2="497.426" y2="272.988"/><path class="cls-2" d="M534.854,280.578c-3.254.311-6.449,0-9.563-.866-1.525-.487-2.999-1.234-4.543-1.627-4.589-.999-9.43-.564-14.247-1.783-3.096-.75-6.155-1.682-9.102-3.178-.125-.058-.088-.268.054-.272,4.916-.329,9.615.323,14.274,1.647,3.096.713,6.023,2.302,9.195,2.709,3.179.242,6.429.108,9.487,1.244,1.525.49,3.042,1.022,4.498,1.854.116.063.085.26-.054.272h0Z"/><line class="cls-2" x1="595.841" y1="211.395" x2="593.757" y2="241.57"/><path class="cls-2" d="M595.979,211.404c.764,2.516.915,5.066.494,7.614-.266,1.245-.797,2.472-.967,3.723-.341,3.711.775,7.491.249,11.387-.304,2.506-.795,4.998-1.859,7.452-.049.121-.245.114-.276-.019-1.016-3.84-1.041-7.585-.387-11.396.264-2.5,1.43-4.945,1.381-7.484.003-1.263-.354-2.551-.446-3.821-.067-2.583.433-5.085,1.535-7.474.054-.115.24-.107.276.019h0Z"/><line class="cls-2" x1="630.623" y1="248.573" x2="595.841" y2="211.395"/><path class="cls-2" d="M630.421,248.762c-4.16-1.719-7.558-4.378-10.181-7.905-1.189-1.793-1.982-3.955-3.313-5.616-1.311-1.678-2.964-3.037-4.803-4.222-3.648-2.332-6.844-5.162-9.749-8.309-2.779-3.321-5.247-6.997-6.737-11.127-.23-1.213,3.013,1.015,3.411,1.166,4.646,2.757,8.613,6.421,11.747,10.797,2.761,3.202,4.185,7.672,7.436,10.473,1.568,1.438,3.673,2.374,5.383,3.679,1.708,1.309,2.999,3.009,4.236,4.752,1.207,1.775,2.293,3.665,2.975,5.932.076.234-.174.475-.405.379h0Z"/><line class="cls-2" x1="564.267" y1="225.909" x2="595.841" y2="211.395"/><path class="cls-2" d="M564.151,225.657c1.705-2.768,4.037-4.657,7.044-5.477,1.464-.28,3.155-.069,4.539-.526,2.151-.588,3.703-2.502,5.362-3.935,1.764-1.295,3.607-2.543,5.614-3.386,2.842-1.042,5.938-1.609,9.015-1.19,1.202.297-2.485,3.679-2.916,4.055-2.783,2.532-6.231,3.803-9.85,4.572-2.168.326-4.631.258-6.478,1.508-1.248.752-2.189,2.173-3.355,3.102-1.168.931-2.58,1.332-4.011,1.675-1.454.304-2.978.456-4.732.106-.224-.041-.346-.306-.231-.503h0Z"/><circle class="cls-2" cx="534.881" cy="280.442" r="4.919"/><circle class="cls-2" cx="551.799" cy="197.233" r="4.919"/><circle class="cls-2" cx="427.995" cy="263.15" r="4.919"/><circle class="cls-2" cx="455.017" cy="223.074" r="2.835"/><circle class="cls-2" cx="548.963" cy="310.695" r="2.835"/><circle class="cls-2" cx="501.772" cy="198.657" r="2.835"/><circle class="cls-2" cx="464.938" cy="279.367" r="2.835"/><circle class="cls-2" cx="512.846" cy="322.26" r="2.835"/><circle class="cls-2" cx="593.757" cy="327.212" r="2.835"/><circle class="cls-2" cx="507.175" cy="260.314" r="2.835"/><circle class="cls-2" cx="593.757" cy="241.57" r="2.835"/><circle class="cls-2" cx="569.186" cy="336.256" r="2.835"/><circle class="cls-2" cx="581.262" cy="356.157" r="2.835"/><circle class="cls-2" cx="536.582" cy="338.856" r="2.835"/><circle class="cls-2" cx="582.643" cy="298.691" r="2.835"/><circle class="cls-2" cx="476.423" cy="238.735" r="4.919"/><circle class="cls-2" cx="442.393" cy="307.859" r="4.919"/><circle class="cls-2" cx="595.841" cy="211.395" r="4.919"/><circle class="cls-2" cx="630.623" cy="248.573" r="4.919"/><circle class="cls-2" cx="624.509" cy="317.698" r="4.919"/><circle class="cls-2" cx="522.949" cy="233.816" r="4.919"/><circle class="cls-2" cx="564.267" cy="225.909" r="4.919"/><circle class="cls-2" cx="596.593" cy="265.233" r="4.919"/><circle class="cls-2" cx="497.426" cy="272.988" r="2.835"/><circle class="cls-2" cx="483.714" cy="313.53" r="2.835"/><circle class="cls-2" cx="612.368" cy="344.527" r="2.835"/><circle class="cls-2" cx="562.183" cy="357.395" r="2.835"/><circle class="cls-2" cx="584.271" cy="404.279" r="2.835"/><circle class="cls-2" cx="501.772" cy="336.256" r="2.835"/><circle class="cls-2" cx="645.509" cy="295.952" r="2.835"/><circle class="cls-2" cx="618.533" cy="294.198" r="4.023"/></svg>