<?xml version="1.0" encoding="UTF-8"?><svg id="Favicon" xmlns="http://www.w3.org/2000/svg" viewBox="0 0 512 512"><defs><style>.cls-1{fill:#0099e5;}.cls-2{fill:none;stroke:#0099e5;stroke-linecap:round;stroke-linejoin:round;stroke-width:10px;}</style></defs><path class="cls-1" d="M16.869,179.088c3.038,3.343,5.2,7.1,7.128,11.063,1.789,3.87,3.476,7.784,4.161,12.018.685,4.232.447,8.761,1.459,12.888.981,4.137,2.754,8.019,4.972,11.757,4.386,7.33,7.712,15.292,10.276,23.407,2.229,8.393,3.679,16.834,3.185,25.691-.021.461-.663.686-.952.306-5.569-6.901-9.319-14.606-12.406-22.721-2.073-6.016-3.412-12.293-4.59-18.559-.848-6.325-.975-13.011-3.548-18.895-1.586-3.942-4.422-7.481-6.336-11.318-1.915-3.839-2.829-8-3.634-12.188-.747-4.343-1.183-8.654-.667-13.143.046-.446.654-.653.952-.307h0Z"/><path class="cls-1" d="M96.631,214.547c-2.389,6.321-5.937,11.902-10.478,16.793-2.337,2.331-5.134,4.299-7.306,6.761-2.202,2.438-3.981,5.211-5.574,8.132-4.739,8.673-10.555,16.767-17.737,23.591-2.418,2.267-4.887,4.494-7.726,6.428-.235.167-.592-.092-.471-.372,5.071-12.332,13.536-22.826,23.358-31.685,2.476-2.222,4.766-4.59,6.632-7.294,1.896-2.68,3.168-5.854,4.899-8.665,1.735-2.809,3.956-5.235,6.233-7.61,2.315-2.349,4.772-4.585,7.7-6.449.236-.158.58.096.471.372h0Z"/><path class="cls-1" d="M16.514,178.966c7.395,1.002,14.351,3.321,20.886,6.763,3.177,1.82,6.123,4.166,9.383,5.795,3.247,1.66,6.712,2.824,10.272,3.772,10.593,2.83,20.877,6.844,30.294,12.503,3.137,1.911,6.247,3.882,9.168,6.286.237.181.06.607-.241.549-14.568-2.373-28.152-8.487-40.541-16.33-3.107-1.979-6.309-3.741-9.729-5.008-3.406-1.298-7.127-1.878-10.617-2.985-3.488-1.113-6.728-2.794-9.934-4.542-3.189-1.792-6.306-3.749-9.182-6.255-.221-.185-.061-.596.241-.549h0Z"/><path class="cls-1" d="M47.628,275.668c7.585-1.693,15.327-1.578,22.77.161,3.658,1.022,7.211,2.818,10.907,3.562,3.691.783,7.475.896,11.308.644,15.206-.886,30.699,1.081,44.499,7.914.337.167.278.727-.109.793-7.66,1.534-15.252,1.452-22.898.766-5.611-.659-11.152-1.949-16.635-3.346-5.414-1.658-10.829-3.961-16.516-4.213-3.76-.279-7.665.493-11.464.492-3.8-.006-7.488-.832-11.155-1.754-3.663-.989-7.295-2.203-10.816-4.225-.324-.176-.263-.714.109-.793h0Z"/><path class="cls-1" d="M96.79,214.144c3.1,2.175,5.519,4.857,7.76,7.777,2.099,2.854,4.115,5.764,5.301,9.128,1.185,3.363,1.606,7.145,3.062,10.358,1.431,3.227,3.517,6.095,5.973,8.759,9.629,10.601,16.872,23.522,18.567,37.962.048.407-.467.704-.789.434-5.799-4.621-10.15-10.261-13.986-16.396-2.646-4.572-4.687-9.501-6.583-14.444-1.615-5.048-2.654-10.547-5.72-14.919-1.932-2.952-4.9-5.335-7.103-8.138-2.205-2.805-3.581-6.066-4.865-9.368-1.264-3.457-2.231-6.935-2.406-10.719-.024-.398.465-.674.789-.433h0Z"/><path class="cls-1" d="M121.493,126.814c-3.425,3.83-7.392,6.837-11.582,9.64-4.132,2.662-8.323,5.229-12.985,6.856-4.66,1.626-9.757,2.388-14.262,4.322-4.52,1.905-8.666,4.552-12.601,7.617-3.89,3.075-7.932,5.916-12.214,8.385-8.324,5.303-17.13,9.546-26.568,12.526-4.716,1.516-9.529,2.841-14.663,3.528-.467.073-.811-.552-.45-.893,10.696-10.558,23.536-18.203,37.425-23.601,8.923-4.134,19.192-5.268,27.622-10.435,4.234-2.472,7.877-6.117,11.956-8.896,4.081-2.781,8.636-4.623,13.234-6.362,4.745-1.701,9.52-3.102,14.637-3.579.458-.049.777.549.45.893h0Z"/><path class="cls-1" d="M75.326,92.731c-.82,4.56-2.508,8.683-4.501,12.746-2.006,3.9-4.111,7.746-7.085,11.003-2.974,3.255-6.751,5.969-9.439,9.417-2.715,3.43-4.741,7.324-6.379,11.48-3.192,8.186-7.535,15.921-12.468,23.154-5.357,7.138-11.233,13.7-18.646,18.989-.375.273-.955-.095-.829-.559,2.123-8.853,6.004-16.764,10.613-24.405,3.553-5.5,7.763-10.584,12.067-15.535,4.555-4.729,9.835-9.112,12.974-14.923,2.188-3.785,3.288-8.303,5.191-12.281,1.904-3.979,4.68-7.371,7.544-10.694,3.02-3.371,6.207-6.48,10.129-8.951.379-.245.923.108.829.559h0Z"/><path class="cls-1" d="M176.396,40.019c-3.249,3.814-7.053,6.816-11.086,9.618-3.975,2.659-8.009,5.223-12.529,6.855-4.518,1.631-9.484,2.403-13.842,4.339-4.373,1.907-8.362,4.551-12.134,7.61-3.726,3.067-7.608,5.904-11.736,8.372-12.131,7.954-25.477,13.735-39.926,16.083-.464.075-.813-.54-.463-.887,6.796-7.158,14.687-12.627,23.071-17.513,6.272-3.421,12.923-6.162,19.596-8.744,6.793-2.266,14.048-3.884,20.103-7.774,4.079-2.47,7.551-6.104,11.471-8.88,3.922-2.776,8.331-4.622,12.785-6.364,4.604-1.708,9.239-3.113,14.228-3.601.456-.05.779.537.463.886h0Z"/><path class="cls-1" d="M120.973,126.772c-2.843.129-5.321-.489-7.799-1.5-2.23-.984-4.409-2.076-5.958-4.016-1.55-1.934-2.529-4.65-4.282-6.307-1.727-1.693-3.964-2.689-6.461-3.329-4.759-1.164-9.252-3.462-13.128-6.376-3.857-3.399-6.916-7.263-8.729-12.388-.137-.39.177-.821.591-.807,5.431.174,10.044,1.923,14.449,4.57,2.984,2.015,5.525,4.701,7.913,7.425,2.151,2.922,3.937,6.687,7.266,8.308,2.109,1.17,4.994,1.28,7.307,2.172,2.319.889,4.018,2.635,5.631,4.463,1.713,2.056,3.052,4.228,3.791,6.979.104.389-.189.788-.59.807h0Z"/><path class="cls-1" d="M95.915,214.225c-.787-4.041-.631-7.954-.157-11.922.543-3.799,1.177-7.585,2.843-11.074,1.658-3.491,4.248-6.718,5.574-10.302,1.358-3.576,1.916-7.377,2.023-11.306.179-7.69,1.577-15.353,3.71-22.707,2.567-7.417,5.814-14.417,10.879-20.681.281-.355.915-.189.962.272,1.038,7.985.14,15.653-1.557,23.316-1.426,5.541-3.623,10.891-5.934,16.14-2.616,5.111-6.045,10.132-6.987,15.842-.746,3.748-.229,7.854-.644,11.696-.407,3.846-1.849,7.403-3.375,10.924-1.674,3.629-3.588,7.042-6.375,10.076-.294.327-.887.166-.962-.272h0Z"/><path class="cls-1" d="M166.81,200.841c-5.344,3.133-11.098,4.96-17.165,5.615-3.006.196-6.125-.182-9.09.221-4.49.477-8.683,2.495-12.914,4.003-7.148,2.316-14.448,4.052-21.994,4.28-3.066.121-6.113.115-9.193-.305-.282-.034-.377-.45-.116-.589,10.654-5.832,22.875-8.108,34.92-8.224,3.043-.008,6.033-.288,8.925-1.065,2.898-.748,5.642-2.278,8.499-3.232,2.859-.952,5.838-1.295,8.827-1.564,3.001-.221,6.035-.275,9.187.271.275.041.368.446.116.589h0Z"/><path class="cls-1" d="M248.191,217.193c-3.278,4.797-7.309,8.693-11.639,12.377-4.274,3.503-8.625,6.91-13.671,9.236-5.038,2.335-10.707,3.694-15.52,6.376-4.834,2.649-9.127,6.136-13.115,10.094-3.931,3.962-8.074,7.667-12.555,10.961-4.37,3.368-8.725,6.758-13.448,9.579-9.746,5.659-19.71,10.393-30.858,13.033-.545.134-1.02-.555-.652-1.008,5.26-6.947,11.342-12.472,17.935-17.829,8.532-7.042,18.356-12.193,28.247-17.071,7.592-3.289,15.815-5.854,22.35-11.002,4.421-3.289,7.986-7.902,12.182-11.538,4.192-3.648,9.083-6.217,14.031-8.678,5.137-2.438,10.341-4.515,16.062-5.537.536-.102.981.554.652,1.008h0Z"/><path class="cls-1" d="M175.773,337.872c-2.934-.799-5.297-2.24-7.545-4.041-2.032-1.716-3.984-3.522-5.105-5.98-1.124-2.452-1.489-5.507-2.883-7.746-1.358-2.266-3.392-3.995-5.772-5.45-4.584-2.742-8.57-6.5-11.817-10.682-3.089-4.629-5.322-9.513-5.984-15.317-.048-.418.386-.766.783-.622,5.502,1.954,9.759,5.237,13.569,9.29,2.555,2.997,4.505,6.521,6.299,10.049,1.511,3.665,2.452,8.023,5.442,10.73,1.865,1.863,4.759,2.91,6.894,4.558,2.141,1.647,3.458,3.957,4.672,6.324,1.246,2.598,2.114,5.223,2.231,8.263.017.409-.389.731-.783.622h0Z"/><path class="cls-1" d="M121.555,125.959c3.712.359,7.015,1.54,10.274,3.063,3.063,1.523,6.084,3.13,8.484,5.615,2.404,2.476,4.252,5.745,6.853,7.938,2.583,2.22,5.644,3.761,8.973,4.918,6.491,2.221,12.593,5.587,18.146,9.55,5.487,4.405,10.32,9.31,13.867,15.648.219.384-.133.901-.574.819-3.75-.557-7.09-1.699-10.307-3.017-3.202-1.339-6.256-2.888-9.125-4.702-4.244-2.813-8.055-6.295-11.729-9.843-3.441-3.784-6.534-8.325-11.1-10.739-2.948-1.701-6.65-2.326-9.796-3.745-3.154-1.411-5.692-3.705-8.166-6.068-2.541-2.547-4.774-5.25-6.375-8.62-.189-.386.144-.868.574-.819h0Z"/><path class="cls-1" d="M166.356,200.242c-.895-3.361-.342-7.389,2.369-9.1,1.392-.75,3.551-.909,4.669-1.869,1.156-.931,1.626-2.39,1.745-4.119.135-3.016,1.324-6.165,3.212-8.451,1.592-1.624,3.825-2.847,6.167-3.447.873-.239,1.819-.421,2.95-.461.383-.014.711.25.793.61.721,3.39.221,6.952-1.439,9.815-1.211,1.817-3.131,3.164-5.005,4.341-2.004.954-5.03,1.485-5.873,3.674-.893,1.975.263,5.253-1.701,6.883-1.99,1.839-3.785,2.666-7.095,2.733-.379-.002-.698-.261-.793-.61h0Z"/><path class="cls-1" d="M247.571,217.094c-3.448-.249-6.491-1.299-9.495-2.703-2.796-1.393-5.546-2.877-7.663-5.225-2.12-2.339-3.671-5.461-5.994-7.521-2.304-2.086-5.096-3.5-8.163-4.536-5.95-1.972-11.527-5.084-16.532-8.789-4.945-4.156-9.198-8.797-12.153-14.816-.194-.389.155-.879.588-.809,3.498.443,6.576,1.463,9.528,2.657,2.937,1.215,5.723,2.638,8.318,4.322,3.834,2.618,7.225,5.9,10.474,9.241,3.011,3.567,5.665,7.9,9.831,10.127,2.677,1.572,6.126,2.083,9.005,3.376,2.888,1.287,5.148,3.444,7.337,5.672,2.264,2.423,4.201,4.99,5.505,8.194.163.39-.166.845-.588.809h0Z"/><path class="cls-1" d="M166.497,200.704c-5.486-5.016-9.861-10.863-13.249-17.393-1.563-3.294-2.636-6.889-4.377-10.075-1.712-3.203-3.886-6.123-6.261-8.92-7.062-8.329-13.196-17.455-17.678-27.436-1.478-3.347-2.9-6.727-3.92-10.355-.091-.283.297-.532.512-.314,10.579,10.209,18.217,22.929,23.887,36.388,1.415,3.385,3.032,6.646,5.11,9.625,2.049,2.996,4.767,5.583,6.994,8.47,2.222,2.892,3.916,6.108,5.544,9.359,1.59,3.278,3.025,6.651,3.95,10.337.076.278-.29.524-.512.314h0Z"/><path class="cls-1" d="M222.078,116.212c-3.878,2.287-7.98,3.633-12.238,4.707-4.138.957-8.297,1.805-12.566,1.607-4.266-.198-8.634-1.36-12.864-1.216-4.233.112-8.379,1.05-12.476,2.454-8.039,2.789-16.48,4.41-24.915,5.255-8.639.46-17.165.147-25.699-2.154-.446-.116-.535-.789-.105-.995,7.862-4.034,16.137-6.124,24.68-7.48,6.288-.795,12.681-.818,19.031-.685,6.339.468,12.884,1.715,19.146.404,4.167-.743,8.195-2.793,12.325-3.879,4.133-1.086,8.377-1.127,12.624-1.057,4.388.16,8.68.618,12.952,2.043.427.137.504.773.105.994h0Z"/><path class="cls-1" d="M247.284,216.838c-3.187-3.494-5.329-7.424-7.176-11.612-1.675-4.045-3.236-8.135-3.551-12.54-.326-4.399.474-9.087-.252-13.384-.688-4.307-2.343-8.366-4.542-12.286-2.212-3.858-4.124-7.842-5.542-12.03-1.518-4.094-3.062-8.182-3.948-12.438-1.704-8.867-2.417-17.565-.829-26.685.088-.531.83-.733,1.163-.297,4.468,5.509,7.335,11.318,9.914,17.635,3.392,8.088,4.58,16.814,5.487,25.493.281,6.542-.34,13.489,2.038,19.651,1.427,4.118,4.38,7.845,6.208,11.86,1.84,4.015,2.435,8.352,2.909,12.704.392,4.561.4,9.034-.716,13.631-.118.508-.815.694-1.163.298h0Z"/><path class="cls-1" d="M312.033,98.877c-.605,5.865-2.306,11.301-4.37,16.694-2.102,5.209-4.318,10.37-7.663,14.92-3.334,4.553-7.691,8.555-10.661,13.304-3.004,4.731-5.131,9.934-6.763,15.405-1.58,5.447-3.471,10.77-5.854,15.894-2.251,5.137-4.478,10.286-7.302,15.114-5.901,9.811-12.439,18.922-21.026,26.767-.412.383-1.165.007-1.057-.569,1.329-8.743,4.064-16.637,7.326-24.625,4.173-10.442,10.387-19.848,16.793-29.048,5.136-6.661,11.171-12.989,14.483-20.769,2.333-5.092,3.28-10.932,5.249-16.22,1.96-5.296,5.053-9.984,8.247-14.605,3.37-4.69,6.973-9.098,11.54-12.83.42-.352,1.131.011,1.056.569h0Z"/><path class="cls-1" d="M199.994,306.774c2.561-2.751,5.529-4.678,8.742-6.363,3.095-1.53,6.232-2.975,9.693-3.394,3.456-.429,7.207.065,10.558-.691,3.361-.726,6.468-2.243,9.433-4.206,5.755-3.85,12.185-6.695,18.759-8.744,6.884-1.728,13.774-2.635,21.031-1.648.44.056.64.651.305.953-2.741,2.66-5.7,4.641-8.725,6.417-3.032,1.751-6.143,3.258-9.352,4.457-4.853,1.696-9.975,2.642-15.068,3.439-5.141.468-10.673.203-15.402,2.396-3.167,1.33-5.934,3.911-8.996,5.57-3.061,1.67-6.453,2.315-9.861,2.867-3.594.495-7.128.65-10.812-.102-.423-.081-.606-.64-.305-.952h0Z"/><path class="cls-1" d="M175.85,337.313c-.197-2.209.247-3.911.869-5.474.67-1.51,1.411-2.987,2.824-3.926,1.404-.942,3.417-1.404,4.605-2.517,1.216-1.091,1.891-2.611,2.29-4.349,1.47-6.823,6.312-12.542,13.395-14.044.283-.058.559.125.617.408.098,3.832-1.05,7.049-2.947,10.07-1.418,1.968-3.366,3.563-5.325,5.028-2.095,1.272-4.895,2.223-6.012,4.484-.81,1.413-.797,3.477-1.391,5.06-.589,1.592-1.856,2.652-3.171,3.652-1.377.964-2.932,1.787-5.127,2.104-.311.046-.6-.183-.627-.496h0Z"/><path class="cls-1" d="M251.504,343.79c-5.468,3.275-13.068,4.662-19.175,2.99-3.083-1.017-6.08-3.177-9.194-3.774-3.11-.649-6.297-.265-9.524.647-3.153.94-6.345,1.578-9.601,1.676-3.175.219-6.352.466-9.478.035-6.679-1.065-12.713-3.049-18.413-7.204-.408-.298-.36-.964.089-1.197,6.251-3.262,12.517-4.328,19.279-4.389,4.732.19,9.436,1.342,14.017,2.635,4.471,1.655,9.089,4.375,13.919,3.946,3.168-.128,6.453-1.818,9.652-2.366,3.203-.533,6.317.178,9.398,1.04,3.31,1.022,6.339,2.386,9.12,4.765.372.319.326.937-.089,1.197h0Z"/><path class="cls-1" d="M278.82,282.406c.605,3.12.363,6.027-.245,8.989-.641,2.74-1.379,5.455-3.098,7.735-1.708,2.281-4.303,4.173-5.697,6.592-1.423,2.407-2.085,5.148-2.318,8.078-.412,5.635-2.009,11.189-4.317,16.296-2.772,5.164-6.167,9.714-11.138,13.297-.344.25-.869.023-.915-.403-.721-6.081.338-11.664,2.269-17.196,1.555-3.873,3.855-7.455,6.236-10.904,2.644-3.262,6.136-6.347,7.238-10.463.841-2.662.481-5.853,1.007-8.654.518-2.808,2.019-5.187,3.605-7.512,1.773-2.451,3.75-4.592,6.459-6.257.351-.218.84-.004.916.402h0Z"/><path class="cls-1" d="M248.307,216.923c-.278,4.534-1.465,8.73-2.962,12.902-1.528,4.009-3.16,7.975-5.72,11.449-2.559,3.472-5.976,6.493-8.231,10.126-2.284,3.618-3.832,7.623-4.966,11.846-2.199,8.31-5.59,16.3-9.624,23.855-4.466,7.508-9.511,14.495-16.215,20.382-.344.308-.955.006-.885-.466,1.065-8.856,3.976-16.97,7.644-24.898,2.87-5.724,6.44-11.106,10.115-16.365,3.948-5.065,8.657-9.865,11.084-15.854,1.722-3.914,2.282-8.44,3.699-12.514,1.418-4.076,3.767-7.664,6.209-11.191,2.595-3.594,5.384-6.943,8.967-9.738.351-.281.925.01.885.466h0Z"/><path class="cls-1" d="M277.909,282.416c-2.857-1.819-4.975-4.14-6.889-6.757-1.735-2.504-3.386-5.064-4.063-8.073-.685-3.002-.493-6.413-1.49-9.27-.968-2.871-2.689-5.391-4.835-7.713-4.174-4.466-7.477-9.752-9.987-15.279-2.241-5.897-3.635-11.877-3.233-18.423.024-.432.56-.687.907-.422,5.266,3.904,8.947,8.824,12.016,14.335,2.031,4.043,3.353,8.452,4.522,12.841.852,4.469,1.017,9.441,3.529,13.303,1.544,2.603,4.278,4.651,6.134,7.108,1.867,2.456,2.762,5.366,3.562,8.306.77,3.15,1.182,6.263.735,9.622-.052.417-.554.653-.907.422h0Z"/><path class="cls-1" d="M176.671,39.897c-.321,4.659-1.675,8.86-3.42,13.026-1.759,3.94-3.628,7.829-6.582,11.026-2.942,3.202-6.867,5.783-9.46,9.206-2.626,3.402-4.409,7.337-5.718,11.573-1.254,4.201-2.805,8.272-4.845,12.125-1.902,3.86-3.782,7.734-6.235,11.245-5.215,7.22-10.985,13.597-18.636,18.591-.447.297-1.099-.103-1.014-.642.559-4.709,1.858-8.951,3.362-13.063,1.522-4.061,3.307-7.997,5.45-11.742,3.298-5.516,7.419-10.55,11.632-15.427,4.513-4.612,9.942-8.847,12.742-14.725,1.982-3.81,2.632-8.461,4.264-12.492,1.624-4.04,4.336-7.394,7.142-10.672,3.016-3.362,6.231-6.383,10.304-8.672.451-.259,1.059.118,1.014.641h0Z"/><path class="cls-1" d="M221.597,115.973c-3.427-2.098-6.121-4.795-8.64-7.766-2.345-2.903-4.618-5.864-5.97-9.375-1.358-3.506-1.886-7.511-3.538-10.839-1.625-3.345-3.962-6.261-6.699-8.935-5.373-5.205-9.901-11.285-13.698-17.69-3.549-6.769-6.32-13.744-7.316-21.534-.061-.446.487-.79.857-.516,3.365,2.296,6.119,4.961,8.689,7.737,2.547,2.789,4.875,5.71,6.926,8.799,2.984,4.693,5.302,9.819,7.468,14.957,1.857,5.265,3.092,11.065,6.53,15.522,2.169,3.017,5.463,5.357,7.927,8.196,2.472,2.836,4.026,6.23,5.496,9.66,1.448,3.616,2.572,7.256,2.825,11.269.032.436-.485.754-.857.516h0Z"/><path class="cls-1" d="M284.52,37.091c-4.287,2.349-8.767,3.575-13.426,4.457-4.488.748-8.994,1.375-13.533.717-4.536-.646-9.105-2.454-13.63-2.687-4.526-.272-9.023.453-13.504,1.739-4.425,1.314-8.906,2.306-13.475,2.771-4.501.584-9.002,1.194-13.521,1.127-9.358-.28-18.351-1.484-27.25-5.039-.505-.197-.541-.977-.034-1.2,6.619-3.155,13.183-4.68,20.164-5.809,8.983-1.537,18.1-.785,27.113.232,6.706,1.162,13.604,3.287,20.396,2.318,4.504-.49,8.963-2.555,13.455-3.458,4.495-.915,9.028-.545,13.552-.054,4.702.616,9.242,1.584,13.658,3.685.477.221.506.954.034,1.2h0Z"/><path class="cls-1" d="M221.633,115.405c1.06-4.358,2.951-8.221,5.145-12.005,2.194-3.616,4.481-7.171,7.593-10.074,3.11-2.901,6.981-5.202,9.821-8.317,2.865-3.094,5.078-6.703,6.923-10.602,3.596-7.673,8.309-14.82,13.573-21.42,5.682-6.477,11.839-12.333,19.423-16.807.395-.238.938.168.785.619-2.581,8.415-6.842,15.77-11.816,22.805-3.806,5.035-8.238,9.606-12.751,14.037-4.745,4.19-10.193,7.982-13.611,13.359-2.367,3.487-3.702,7.788-5.798,11.489-2.098,3.703-5.021,6.755-8.027,9.732-3.169,3.015-6.482,5.753-10.475,7.801-.396.209-.904-.179-.785-.619h0Z"/><path class="cls-1" d="M187.608,172.947c1.025-5.709,3.289-10.865,6.647-15.473,1.755-2.193,4.014-4.087,5.589-6.388,1.599-2.286,2.764-4.832,3.69-7.518,3.24-9.27,8.138-17.997,15.038-25.051.994-1.028,2.034-2.027,3.196-2.955.215-.181.579.023.515.307-2.344,11.096-8.392,21.045-15.926,29.38-1.92,2.095-3.603,4.332-4.85,6.828-1.272,2.481-1.86,5.369-2.951,7.958-1.095,2.588-2.723,4.859-4.412,7.088-1.734,2.206-3.614,4.325-6.02,6.132-.216.17-.569-.027-.516-.307h0Z"/><path class="cls-1" d="M286.694,144.682c-6.109-.47-11.807-2.244-17.089-5.159-2.543-1.549-4.849-3.633-7.477-4.99-2.617-1.383-5.438-2.303-8.372-2.97-10.14-2.35-19.922-6.402-28.302-12.652-1.217-.898-2.412-1.846-3.55-2.922-.211-.19-.05-.584.243-.549,11.94,1.275,23.134,6.363,32.939,13.119,2.466,1.724,5.043,3.196,7.826,4.204,2.771,1.035,5.864,1.341,8.72,2.184,2.856.846,5.461,2.259,8.032,3.738,2.553,1.526,5.038,3.207,7.274,5.449.201.192.045.575-.243.549h0Z"/><path class="cls-1" d="M311.58,98.985c-6.691,4.035-14.167,6.426-21.818,7.165-3.825.207-7.797-.352-11.57.131-3.78.445-7.432,1.553-11.016,3.024-14.253,5.725-29.684,8.841-45.076,6.803-.374-.049-.497-.601-.15-.786,6.832-3.916,14.116-6.277,21.642-8.084,5.575-1.179,11.285-1.738,16.975-2.176,5.708-.169,11.623.272,17.14-1.316,3.684-.944,7.169-2.93,10.8-4.15,3.634-1.215,7.424-1.618,11.226-1.923,3.819-.24,7.68-.258,11.695.526.364.062.479.593.15.786h0Z"/><path class="cls-1" d="M284.961,36.292c2.722,1.716,4.709,3.911,6.488,6.409,1.594,2.373,3.104,4.801,3.629,7.652.533,2.845.177,6.076,1.026,8.784.819,2.721,2.4,5.11,4.41,7.313,3.896,4.215,6.923,9.241,9.141,14.486,1.944,5.621,3.019,11.287,2.308,17.457-.047.424-.574.657-.917.399-4.995-3.685-8.408-8.34-11.192-13.594-1.814-3.834-2.91-8.017-3.852-12.17-.626-4.221-.548-8.94-2.848-12.607-1.401-2.467-4.007-4.411-5.724-6.741-1.728-2.329-2.473-5.088-3.122-7.873-.614-3.005-.863-5.952-.263-9.116.075-.408.568-.623.917-.399h0Z"/><path class="cls-1" d="M384.152,184.109c-4.57-.641-8.766-2.007-12.858-3.575-4.058-1.625-8.076-3.341-11.715-5.792-3.635-2.454-6.912-5.602-10.676-7.807-3.746-2.239-7.801-3.878-12.026-5.189-16.712-5.311-32.803-13.412-45.633-25.544-.277-.266-.029-.795.367-.711,8.714,1.622,17.026,4.818,25.001,8.535,5.859,2.898,11.442,6.365,16.937,9.918,5.347,3.78,10.472,8.158,16.536,10.697,3.979,1.788,8.444,2.632,12.551,4.17,4.106,1.543,7.835,3.821,11.512,6.185,3.65,2.425,7.197,5.05,10.369,8.402.265.268.023.783-.367.711h0Z"/><path class="cls-1" d="M375.135,132.95c-3.377.269-6.469-.307-9.575-1.242-2.895-.953-5.757-2.002-8.113-3.995-2.358-1.984-4.262-4.822-6.782-6.502-2.505-1.708-5.399-2.682-8.512-3.243-6.026-1.049-11.851-3.279-17.189-6.177-5.346-3.356-10.066-7.289-13.694-12.757-.241-.359.033-.886.469-.883,6.559-.057,12.465,1.652,18.238,4.201,4.06,2.003,7.775,4.726,11.356,7.525,3.376,3.054,6.508,6.923,10.842,8.492,2.802,1.147,6.22,1.134,9.184,1.977,2.971.835,5.442,2.619,7.853,4.484,2.514,2.05,4.721,4.287,6.391,7.237.21.364-.049.855-.469.883h0Z"/><path class="cls-1" d="M379.698,67.731c-4.488.884-8.795.66-13.169.044-4.155-.685-8.288-1.49-12.024-3.518-3.737-2.016-7.118-5.138-10.981-6.76-3.851-1.659-8.008-2.369-12.337-2.544-4.28-.132-8.51-.582-12.653-1.562-4.113-.844-8.235-1.663-12.149-3.128-8.103-3.182-15.518-7.113-22.066-13.2-.393-.361-.172-1.085.367-1.143,4.6-.668,8.932-.504,13.19-.109,4.212.425,8.37,1.137,12.434,2.243,6.017,1.765,11.773,4.448,17.399,7.258,5.443,3.166,10.754,7.316,16.996,8.509,4.085.934,8.652.367,12.863.908,4.218.529,8.045,2.284,11.821,4.149,3.914,2.05,7.542,4.376,10.676,7.711.358.374.146,1.05-.367,1.142h0Z"/><path class="cls-1" d="M247.721,216.107c4.897-3.527,10.21-5.948,15.731-8.071,5.413-1.973,10.868-3.83,16.626-4.439,5.754-.62,11.786-.111,17.441-1.132,5.664-.983,11.09-2.935,16.381-5.432,5.24-2.52,10.596-4.727,16.135-6.434,5.46-1.814,10.913-3.655,16.528-4.837,11.509-2.28,22.935-3.623,34.802-2.591.564.044.793.861.287,1.165-7.585,4.937-15.488,8.262-23.806,11.256-10.824,3.985-22.248,5.763-33.651,7.259-8.599.716-17.551.543-25.752,3.362-5.482,1.723-10.587,4.977-15.97,7.101-5.382,2.137-11.074,3.026-16.785,3.795-5.876.685-11.703,1.009-17.68.163-.546-.071-.757-.848-.287-1.165h0Z"/><path class="cls-1" d="M351.086,256.771c-4.955.493-9.654-.129-14.383-1.136-4.523-1.064-9.017-2.248-13.048-4.63-4.033-2.371-7.652-5.827-11.832-7.812-4.167-2.021-8.69-3.11-13.413-3.675-4.683-.518-9.293-1.354-13.781-2.711-4.472-1.221-8.954-2.418-13.194-4.248-8.713-3.913-16.743-8.54-23.785-15.31-.395-.374-.128-1.114.428-1.121,9.759-.35,18.833,1.557,27.933,4.45,6.528,2.321,12.744,5.543,18.829,8.89,5.887,3.698,11.579,8.356,18.36,10.117,4.439,1.309,9.44,1.146,14.027,2.069,4.593.913,8.73,3.027,12.811,5.25,4.195,2.404,8.11,5.072,11.476,8.745.361.385.105,1.08-.428,1.121h0Z"/><path class="cls-1" d="M381.971,183.946c.491,3.587.097,6.958-.644,10.363-.782,3.209-1.656,6.395-3.521,9.164-1.855,2.771-4.604,5.168-6.141,8.071-1.567,2.891-2.367,6.101-2.734,9.491-.681,6.59-2.562,13.06-5.147,19.117-3.033,6.093-6.697,11.645-12.023,16.25-.33.29-.902.06-.923-.385-.308-3.672.042-7.07.591-10.385.573-3.305,1.383-6.511,2.491-9.593,1.766-4.586,4.277-8.893,6.882-13.078,2.883-4.008,6.586-7.841,7.893-12.656.981-3.135.749-6.775,1.412-10.043.654-3.274,2.303-6.136,4.031-8.951,1.898-2.923,4.014-5.573,6.909-7.751.339-.26.872-.041.923.385h0Z"/><path class="cls-1" d="M375.866,132.449c3.357,3.092,5.683,7.846,5.18,12.374-.386,2.212-1.733,4.539-1.776,6.71-.088,2.176.681,4.25,1.888,6.271,2.318,3.771,3.669,8.153,4.123,12.501.087,4.69-.739,9.068-3.274,13.388-.207.348-.709.408-.993.119-3.483-3.594-5.322-7.659-6.344-12.235-.521-3.195-.245-6.529.159-9.766.702-3.191,2.291-6.712,1.246-9.896-.555-2.099-2.414-4.042-3.311-6.101-.904-2.061-.756-4.254-.493-6.439.371-2.432,1.087-4.643,2.602-6.809.229-.323.694-.378.993-.119h0Z"/><path class="cls-1" d="M351.435,256.587c-2.527,2.519-5.328,4.27-8.206,5.807-2.895,1.473-5.83,2.856-9.043,3.458-3.212.598-6.686.46-9.804,1.322-3.131.825-6.035,2.288-8.815,4.097-11.047,7.077-23.769,11.738-37.07,11.311-.366-.012-.556-.511-.269-.754,5.066-4.509,10.823-7.584,16.935-10.146,4.525-1.73,9.282-2.867,14.029-3.882,4.801-.753,9.915-.93,14.323-3.057,2.96-1.304,5.564-3.608,8.43-5.176,2.869-1.566,6.018-2.351,9.192-3.041,3.201-.629,6.478-1.045,10.029-.692.357.027.537.506.269.754h0Z"/><path class="cls-1" d="M321.844,337.809c-3.021-1.36-5.401-3.227-7.604-5.235-2.145-2.046-4.227-4.154-5.648-6.782-1.421-2.626-2.229-5.737-3.87-8.189-1.61-2.476-3.751-4.533-6.18-6.361-9.544-7.281-17.346-16.995-20.494-28.788-.093-.348.307-.675.628-.496,5.528,2.898,9.937,6.91,13.988,11.435,2.821,3.399,5.166,7.201,7.383,11.034,1.989,3.962,3.533,8.418,6.699,11.576,2.009,2.161,4.85,3.663,7.079,5.65,2.231,1.988,3.804,4.498,5.301,7.057,1.447,2.606,2.716,5.352,3.345,8.604.075.344-.308.654-.627.496h0Z"/><path class="cls-1" d="M306.699,383.745c-3.243-.109-6.096-1.007-8.921-2.27-2.605-1.249-5.165-2.589-7.093-4.795-1.931-2.196-3.295-5.176-5.428-7.093-2.114-1.943-4.716-3.213-7.592-4.104-5.551-1.682-10.762-4.504-15.39-7.926-4.581-3.884-8.442-8.248-11.02-13.96-.178-.389.159-.86.587-.81,6.228.665,11.584,2.973,16.702,6.114,3.55,2.404,6.659,5.474,9.621,8.597,2.725,3.343,5.096,7.471,8.979,9.484,2.487,1.429,5.744,1.794,8.433,2.944,2.698,1.143,4.768,3.157,6.768,5.242,2.081,2.291,3.822,4.719,4.94,7.767.146.389-.171.828-.587.81h0Z"/><path class="cls-1" d="M322.499,337.353c2.393,1.005,4.088,2.433,5.59,3.979,1.436,1.576,2.817,3.202,3.458,5.273.648,2.064.633,4.53,1.517,6.45.861,1.934,2.291,3.524,4.041,4.919,6.855,5.478,11.625,13.455,11.545,22.478-.003.337-.383.569-.684.415-4.177-2.113-7.23-5.155-9.851-8.764-1.73-2.642-2.928-5.642-4.001-8.629-.831-3.07-1.153-6.624-3.252-9.083-1.296-1.671-3.49-2.796-5.021-4.324-1.54-1.525-2.345-3.501-3.08-5.502-.678-2.046-1.162-4.209-.948-6.796.022-.329.382-.548.684-.415h0Z"/><path class="cls-1" d="M306.966,382.941c1.623-1.633,3.298-2.452,4.989-3.045,1.685-.522,3.392-.968,5.15-.556,1.755.404,3.56,1.581,5.297,1.71,1.74.165,3.434-.36,5.106-1.236,4.734-2.47,10.226-3.536,15.431-1.974,1.762.502,3.534,1.176,5.343,2.42.232.159.29.476.131.708-5.035,4.535-11.624,5.524-17.973,4.076-2.526-.699-5.276-2.121-7.872-1.425-1.706.352-3.344,1.753-5.032,2.38-1.691.636-3.44.414-5.179.114-1.753-.369-3.52-.964-5.34-2.374-.253-.193-.277-.574-.052-.798h0Z"/><path class="cls-1" d="M322.537,337.687c.816,2.387.856,4.517.682,6.576-.24,2.028-.554,4.048-1.686,5.792-1.122,1.745-2.98,3.246-3.841,5.078-.885,1.823-1.14,3.856-1.039,6.006.399,8.424-2.501,16.899-9.282,22.327-.261.209-.676.072-.759-.252-1.149-4.368-.88-8.491.113-12.663.847-2.901,2.312-5.629,3.846-8.252,1.751-2.491,4.208-4.912,4.677-7.976.403-1.983-.191-4.297-.049-6.367.134-2.075,1.088-3.882,2.106-5.653,1.089-1.756,2.394-3.441,4.473-4.869.267-.189.658-.059.759.252h0Z"/><path class="cls-1" d="M354.127,484.915c-4.774-6.9-7.667-17.444-6.764-25.732.642-4.399,2.618-8.882,2.77-13.251.212-4.372-.782-8.669-2.391-12.928-1.642-4.18-2.923-8.446-3.593-12.853-.808-4.309-1.641-8.616-1.678-12.972.043-9.045,1.351-18.12,5.138-26.476.251-.552,1.081-.61,1.397-.087,1.357,2.095,2.38,4.21,3.3,6.332,2.611,6.189,4.304,12.672,5.097,19.297.608,6.509.08,13.133-.622,19.655-1.153,6.467-3.479,13.235-2.152,19.751.695,4.316,3.214,8.517,4.399,12.802,1.174,4.29.874,8.675.432,13.05-.621,4.628-1.629,9.033-3.937,13.324-.276.521-1.059.574-1.397.087h0Z"/><path class="cls-1" d="M307.535,383.084c3.943,3.135,6.926,6.898,9.663,10.956,2.55,3.958,4.997,7.982,6.279,12.55,1.292,4.561,1.533,9.617,3.199,14.001,1.631,4.401,4.163,8.377,7.204,12.114,3.045,3.676,5.816,7.53,8.138,11.674,2.405,4.036,4.834,8.061,6.65,12.375,3.623,8.968,6.262,17.983,6.7,27.86.029.545-.68.896-1.086.511-5.646-5.021-9.776-10.649-13.702-16.807-5.141-7.907-8.237-16.851-11.05-25.811-1.722-6.832-2.639-14.219-6.348-20.272-2.32-4.076-6.066-7.481-8.76-11.381-2.706-3.897-4.25-8.346-5.679-12.833-1.385-4.695-2.387-9.388-2.295-14.427.004-.529.673-.855,1.086-.511h0Z"/><line class="cls-2" x1="348.309" y1="380.659" x2="415.672" y2="355.473"/><path class="cls-1" d="M442.602,297.659c1.971,5.215,1.72,12.363-1.886,16.647-1.93,2.043-5.077,3.536-6.559,5.782-1.54,2.22-1.976,4.939-1.847,7.914.168,2.87.038,5.698-.75,8.411-.951,5.531-3.395,10.204-7.562,14.078-2.076,1.977-4.427,3.83-7.688,5.271-.474.21-1.029-.005-1.239-.479-1.856-6.144-1.468-11.767.358-17.419,1.467-3.728,4.011-7.044,6.613-10.133,2.904-2.824,7.174-5.401,8.01-9.5.936-3.876-1.266-8.908,1.297-12.538,2.297-3.914,5.514-6.941,9.977-8.61.513-.183,1.075.076,1.276.577h0Z"/><path class="cls-1" d="M375.542,318.444c-2.611,4.183-7.176,7.645-12.035,8.341-2.44.21-5.215-.489-7.536.044-2.337.491-4.375,1.792-6.262,3.507-3.544,3.296-7.888,5.748-12.403,7.342-4.912,1.311-9.765,1.696-14.976.351-.399-.104-.583-.601-.345-.939,3.092-4.401,7.041-7.257,11.63-9.442,3.286-1.355,6.887-1.969,10.433-2.434,3.579-.159,7.661.454,10.811-1.406,2.113-1.099,3.772-3.43,5.767-4.852,1.995-1.429,4.361-1.867,6.747-2.189,2.634-.278,5.154-.179,7.824.737.38.131.55.593.345.939h0Z"/><path class="cls-1" d="M347.85,380.461c-.601-3.182-.349-6.155.267-9.181.65-2.807,1.398-5.591,3.129-7.945,1.72-2.356,4.33-4.328,5.734-6.82,1.434-2.479,2.105-5.288,2.346-8.283.429-5.77,2.044-11.456,4.372-16.704,2.789-5.303,6.204-10.007,11.212-13.751.341-.257.874-.032.918.396.711,6.209-.371,11.926-2.318,17.591-1.57,3.978-3.886,7.669-6.286,11.23-2.666,3.376-6.175,6.579-7.291,10.796-.851,2.731-.496,5.983-1.031,8.851-.526,2.875-2.039,5.327-3.636,7.726-1.781,2.523-3.769,4.744-6.499,6.49-.349.226-.845.013-.918-.396h0Z"/><line class="cls-2" x1="351.3" y1="256.211" x2="322.157" y2="337.561"/><path class="cls-1" d="M374.945,318.24c-2.635-.861-4.663-2.274-6.55-4.06-1.66-1.666-3.235-3.413-3.909-5.716-.678-2.297-.534-5.109-1.504-7.223-.931-2.138-2.594-3.818-4.63-5.263-3.888-2.693-7.127-6.344-9.557-10.341-2.236-4.448-3.544-9.023-3.244-14.297.025-.41.468-.688.847-.531,4.875,2.026,8.426,5.202,11.453,9.153,1.957,2.866,3.253,6.193,4.393,9.495.847,3.395,1.041,7.446,3.465,10.076,1.48,1.794,4.073,2.891,5.844,4.502,1.779,1.611,2.664,3.788,3.44,6.009.784,2.477,1.172,4.916.798,7.665-.055.396-.467.654-.847.531h0Z"/><path class="cls-1" d="M351.548,255.664c4.535-.373,8.764.333,13.016,1.436,4.025,1.147,8.015,2.41,11.47,4.843,3.457,2.421,6.434,5.9,10.062,7.944,3.612,2.08,7.636,3.252,11.893,3.912,4.213.612,8.34,1.534,12.319,2.972,3.966,1.3,7.943,2.576,11.639,4.47,7.639,4.071,14.505,8.806,20.263,15.582.348.404.045,1.096-.496,1.093-4.623.147-8.884-.503-13.045-1.374-4.112-.895-8.137-2.069-12.024-3.623-5.739-2.428-11.115-5.738-16.345-9.16-5.008-3.753-9.772-8.47-15.802-10.356-3.927-1.386-8.506-1.337-12.604-2.346-4.106-1-7.683-3.172-11.196-5.447-3.63-2.475-6.943-5.192-9.649-8.853-.311-.413-.024-1.058.496-1.093h0Z"/><path class="cls-1" d="M375.221,317.497c2.086-2.547,4.567-4.303,7.321-5.818,2.613-1.349,5.272-2.607,8.243-2.84,2.966-.242,6.218.442,9.082-.128,2.873-.54,5.501-1.873,7.991-3.654,4.78-3.463,10.264-5.964,15.878-7.641,5.952-1.362,11.86-1.864,18.081-.524.42.089.597.645.296.955-4.373,4.617-9.537,7.542-15.217,9.778-4.128,1.419-8.524,2.085-12.877,2.602-4.387.194-9.185-.363-13.2,1.556-2.686,1.146-4.983,3.547-7.567,5.022-2.584,1.486-5.487,1.948-8.406,2.311-3.129.305-6.166.257-9.328-.667-.401-.114-.563-.635-.296-.955h0Z"/><path class="cls-1" d="M429.507,246.357c3.762,2.707,6.685,7.195,6.793,11.818-.087,2.28-1.112,4.798-.865,6.993.204,2.206,1.244,4.199,2.712,6.083,2.809,3.514,4.729,7.757,5.761,12.08.711,4.706.483,9.229-1.459,13.916-.158.375-.652.501-.969.246-3.944-3.187-6.308-7.056-7.93-11.529-.943-3.156-1.116-6.551-1.147-9.867.27-3.312,1.375-7.061-.086-10.137-.831-2.046-2.935-3.769-4.1-5.73-1.172-1.963-1.319-4.193-1.35-6.429.043-2.493.455-4.815,1.672-7.198.182-.352.641-.469.969-.246h0Z"/><path class="cls-1" d="M487.874,250.695c-.452,5.596-3.512,11.78-8.198,14.836-2.46,1.417-5.743,2.038-7.9,3.748-2.194,1.674-3.642,4.067-4.711,6.827-1,2.709-2.25,5.27-3.968,7.544-1.563,2.282-3.112,4.579-5.152,6.401-4.551,3.886-9.352,6.595-15.55,7.735-.484.086-.933-.347-.863-.834.921-6.231,3.464-11.128,7.188-15.811,2.725-3.071,6.197-5.492,9.667-7.73,3.665-1.925,8.289-3.276,10.612-6.817,1.633-2.215,2.14-5.518,3.47-8.025,1.34-2.505,3.597-4.13,5.921-5.658,2.648-1.587,5.336-2.724,8.62-3.052.476-.046.893.356.863.834h0Z"/><path class="cls-1" d="M455.779,147.494c3.417,3.451,5.807,7.394,7.915,11.605,1.932,4.081,3.753,8.213,4.346,12.726.604,4.507.099,9.363,1.097,13.747.961,4.395,2.873,8.492,5.321,12.42,2.459,3.866,4.624,7.874,6.306,12.11,1.778,4.139,3.581,8.269,4.737,12.603,2.26,9.017,3.529,17.93,2.514,27.393-.053.539-.792.785-1.145.36-4.823-5.459-8.062-11.308-11.036-17.67-3.905-8.158-5.645-17.069-7.101-25.952-.694-6.719-.512-13.885-3.28-20.107-1.688-4.167-4.879-7.861-6.962-11.904-2.095-4.042-2.964-8.472-3.713-12.925-.678-4.66-.972-9.259-.144-14.046.084-.518.78-.745,1.145-.36h0Z"/><path class="cls-1" d="M381.246,183.215c1.936-3.377,4.496-5.884,7.421-8.168,2.782-2.064,5.652-3.999,9.064-4.812,3.416-.799,7.335-.568,10.566-1.745,3.253-1.13,6.051-3.191,8.617-5.726,2.49-2.529,5.166-4.809,8.163-6.653,2.871-1.912,5.729-3.849,8.886-5.176,6.754-2.685,13.453-4.283,20.98-3.8.512.032.821.653.528,1.078-2.172,3.339-4.728,5.893-7.391,8.229-2.646,2.277-5.455,4.318-8.477,6.011-4.542,2.404-9.541,3.966-14.515,5.343-5.069,1.006-10.783,1.176-15.092,4.162-2.911,1.83-5.133,5.067-7.858,7.275-2.736,2.197-6.023,3.276-9.36,4.208-3.598.909-7.145,1.393-11.003.852-.493-.068-.778-.647-.528-1.078h0Z"/><path class="cls-1" d="M428.624,246.782c-3.352-1.388-6.071-3.431-8.645-5.792-2.383-2.297-4.702-4.662-6.159-7.674-1.465-3.003-2.158-6.592-3.897-9.387-1.714-2.815-4.089-5.129-6.839-7.159-5.361-3.919-10.013-8.813-13.956-14.108-3.747-5.7-6.71-11.673-8.017-18.606-.085-.431.402-.81.797-.604,3.333,1.588,6.097,3.608,8.69,5.757,2.572,2.165,4.94,4.485,7.049,7,3.081,3.843,5.544,8.191,7.857,12.558,2.018,4.519,3.474,9.657,6.984,13.219,2.22,2.432,5.486,4.07,7.981,6.294,2.505,2.219,4.153,5.091,5.719,8.008,1.575,3.118,2.804,6.286,3.234,9.89.055.424-.403.775-.797.604h0Z"/><path class="cls-1" d="M351.238,255.714c2.863-2.206,5.977-3.537,9.294-4.584,3.166-.913,6.359-1.736,9.681-1.491,3.319.235,6.758,1.432,10.033,1.325,3.28-.074,6.457-.973,9.575-2.336,12.304-5.299,26.212-7.097,39.139-2.645.415.143.499.753.124.992-5.843,3.9-12.161,5.946-18.829,7.239-4.847.743-9.821.699-14.737.515-4.899-.515-10.055-1.827-14.873-.572-3.201.704-6.239,2.712-9.397,3.758-3.159,1.057-6.456,1.046-9.75.942-3.473-.197-6.816-.719-10.137-2.151-.394-.165-.468-.736-.124-.992h0Z"/><path class="cls-1" d="M455.69,147.802c.746,4.475.531,8.825.008,13.22-.59,4.243-1.29,8.468-3.006,12.422-1.715,3.951-4.367,7.655-5.749,11.695-1.414,4.031-2.024,8.276-2.182,12.64-.278,8.579-1.791,17.115-4.027,25.369-2.668,8.306-6.017,16.233-11.228,23.461-.266.377-.93.22-.967-.256-.949-8.857.068-17.406,1.864-25.942,1.513-6.213,3.784-12.248,6.185-18.188,2.711-5.811,6.223-11.536,7.244-17.908.8-4.194.33-8.725.797-13.007.467-4.285,1.951-8.301,3.54-12.28,1.723-4.078,3.689-7.961,6.554-11.481.279-.352.903-.197.967.256h0Z"/><path class="cls-1" d="M487.41,250.777c-2.377,1.636-4.847,2.439-7.523,2.912-2.456.364-4.926.61-7.32-.199-2.392-.803-4.722-2.572-7.136-3.031-2.412-.504-4.879-.146-7.376.651-9.774,3.166-20.668,2.323-29.065-4.132-.329-.253-.295-.79.065-.998,4.771-2.768,9.696-3.759,14.919-3.884,3.668.102,7.322,1.008,10.868,2.029,3.454,1.317,7.05,3.537,10.797,3.122,2.454-.142,4.993-1.595,7.469-2.081,2.479-.492,4.896.072,7.285.751,2.592.816,4.935,1.931,7.082,3.862.3.27.268.769-.065.998h0Z"/><path class="cls-1" d="M455.094,148.263c-3.541,1.546-7.06,2.025-10.74,2.106-3.431-.01-6.856-.176-10.043-1.565-3.18-1.403-6.146-3.931-9.405-4.92-3.249-1.04-6.691-1.063-10.232-.565-3.476.537-6.953.763-10.425.449-3.411-.185-6.828-.343-10.118-1.167-6.954-1.89-13.206-4.617-18.875-9.501-.388-.334-.263-1.013.224-1.179,3.708-1.377,7.253-1.894,10.753-2.173,3.45-.241,6.89-.197,10.292.254,5.028.79,9.917,2.529,14.674,4.399,4.611,2.224,9.237,5.506,14.429,5.69,3.394.275,7.081-.99,10.554-1.129,3.474-.124,6.72.978,9.917,2.226,3.394,1.425,6.489,3.159,9.22,5.897.351.351.233.982-.224,1.179h0Z"/><path class="cls-1" d="M247.806,216.984c-7.05.689-13.962.003-20.708-1.876-3.304-1.052-6.494-2.678-9.839-3.523-5.006-1.401-10.324-1.262-15.49-1.614-8.617-.802-17.148-2.197-25.34-5.081-3.284-1.152-6.556-2.369-9.735-4.049-.259-.13-.192-.573.117-.588,13.96-.973,27.797,1.916,40.818,6.755,3.27,1.225,6.586,2.217,10.007,2.68,3.414.5,6.984.219,10.439.513,3.455.297,6.79,1.203,10.107,2.181,3.31,1.024,6.584,2.226,9.742,4.015.252.135.183.565-.117.588h0Z"/><path class="cls-1" d="M380.181,67.181c1.666,5.449,1.981,10.966,1.069,16.489-.574,2.696-1.731,5.352-2.095,8.063-.68,4.075.208,8.264.591,12.352.424,6.86.248,13.718-1.447,20.419-.663,2.738-1.444,5.421-2.63,8.026-.112.257-.526.238-.599-.041-2.926-10.74-2.034-22.144.917-32.767.765-2.683,1.254-5.385,1.237-8.122.012-2.735-.769-5.525-.967-8.274-.194-2.751.231-5.459.729-8.157.549-2.698,1.267-5.384,2.596-8.028.117-.248.519-.23.599.041h0Z"/><path class="cls-1" d="M454.768,148.084c-4.655-1.714-8.593-4.319-12.39-7.282-3.585-2.925-7.092-5.943-9.658-9.838-2.573-3.884-4.297-8.562-7.171-12.164-2.846-3.628-6.42-6.576-10.405-9.139-3.969-2.503-7.732-5.262-11.158-8.434-3.471-3.044-6.962-6.069-9.957-9.558-6.09-7.308-11.252-14.958-14.587-24.099-.191-.509.373-1.057.876-.82,8.897,3.934,16.19,9.595,23.076,16.157,4.83,4.926,8.985,10.525,12.967,16.178,3.65,5.882,6.704,12.543,12.007,17.076,3.402,3.108,7.956,5.139,11.66,7.964,3.715,2.819,6.493,6.519,9.173,10.291,2.704,3.986,5.039,8.086,6.442,12.847.154.504-.379,1.016-.876.82h0Z"/><path class="cls-1" d="M311.254,98.047c1.76-3.191,4.113-5.523,6.846-7.629,2.573-1.876,5.232-3.624,8.407-4.235,3.177-.597,6.832-.153,9.833-1.132,3.023-.932,5.613-2.805,7.981-5.16,2.291-2.343,4.762-4.441,7.551-6.097,2.659-1.723,5.307-3.471,8.237-4.603,6.336-2.291,12.549-3.463,19.522-2.577.5.064.781.669.501,1.09-3.864,5.868-8.803,9.823-14.666,13.139-4.214,2.116-8.868,3.377-13.482,4.454-4.693.708-10.032.555-14.031,3.261-2.697,1.64-4.74,4.704-7.261,6.726-2.531,2.012-5.588,2.891-8.688,3.623-3.379.703-6.677.97-10.248.229-.479-.1-.738-.662-.501-1.09h0Z"/><circle class="cls-1" cx="247.865" cy="216.69" r="10.653"/><circle class="cls-1" cx="284.503" cy="36.491" r="10.653"/><circle class="cls-1" cx="16.393" cy="179.241" r="10.653"/><circle class="cls-1" cx="74.911" cy="92.452" r="6.14"/><circle class="cls-1" cx="278.362" cy="282.205" r="6.14"/><circle class="cls-1" cx="176.164" cy="39.576" r="6.14"/><circle class="cls-1" cx="96.396" cy="214.361" r="6.14"/><circle class="cls-1" cx="200.146" cy="307.25" r="6.14"/><circle class="cls-1" cx="375.369" cy="317.975" r="6.14"/><circle class="cls-1" cx="187.866" cy="173.101" r="6.14"/><circle class="cls-1" cx="375.369" cy="132.508" r="6.14"/><circle class="cls-1" cx="322.157" cy="337.561" r="6.14"/><circle class="cls-1" cx="348.309" cy="380.659" r="6.14"/><circle class="cls-1" cx="251.549" cy="343.192" r="6.14"/><circle class="cls-1" cx="351.3" cy="256.211" r="6.14"/><circle class="cls-1" cx="121.268" cy="126.368" r="10.653"/><circle class="cls-1" cx="47.574" cy="276.065" r="10.653"/><circle class="cls-1" cx="379.882" cy="67.16" r="10.653"/><circle class="cls-1" cx="455.206" cy="147.674" r="10.653"/><circle class="cls-1" cx="441.964" cy="297.37" r="10.653"/><circle class="cls-1" cx="222.025" cy="115.715" r="10.653"/><circle class="cls-1" cx="311.504" cy="98.592" r="10.653"/><circle class="cls-1" cx="381.51" cy="183.754" r="10.653"/><circle class="cls-1" cx="166.753" cy="200.547" r="6.14"/><circle class="cls-1" cx="137.058" cy="288.345" r="6.14"/><circle class="cls-1" cx="415.672" cy="355.473" r="6.14"/><circle class="cls-1" cx="306.992" cy="383.34" r="6.14"/><circle class="cls-1" cx="354.825" cy="484.871" r="6.14"/><circle class="cls-1" cx="176.164" cy="337.561" r="6.14"/><circle class="cls-1" cx="487.442" cy="250.278" r="6.14"/><circle class="cls-1" cx="429.022" cy="246.48" r="8.712"/></svg>